<?xml version="1.0" standalone="no"?>
<!DOCTYPE svg PUBLIC "-//W3C//DTD SVG 20010904//EN"
 "http://www.w3.org/TR/2001/REC-SVG-20010904/DTD/svg10.dtd">
<svg version="1.0" xmlns="http://www.w3.org/2000/svg"
 width="7972.000000pt" height="7972.000000pt" viewBox="0 0 7972.000000 7972.000000"
 preserveAspectRatio="xMidYMid meet">

<g transform="translate(0.000000,7972.000000) scale(0.100000,-0.100000)"
fill="#000000" stroke="none">
<path d="M0 78737 l0 -984 118 -114 c65 -63 230 -222 367 -354 138 -132 309
-296 380 -366 172 -166 760 -731 1558 -1493 356 -340 647 -623 647 -627 0 -5
-68 -105 -152 -222 -443 -621 -941 -1368 -1344 -2019 -87 -142 -162 -257 -166
-255 -3 1 -50 40 -104 87 -483 421 -634 552 -924 805 -184 160 -344 298 -357
308 l-23 18 0 -323 1 -323 560 -470 c308 -258 572 -479 585 -490 l25 -20 -116
-200 c-156 -267 -405 -708 -554 -985 -67 -124 -126 -229 -130 -233 -5 -5 -90
57 -190 138 l-181 146 1 -113 0 -113 143 -110 143 -110 -144 -281 -143 -281 2
-384 3 -384 115 235 c1786 3649 4400 7270 7348 10177 l327 323 -250 0 -250 0
-151 -151 -150 -150 -123 150 -122 151 -124 0 -125 0 162 -196 c90 -107 171
-205 180 -218 16 -22 14 -25 -204 -251 -122 -127 -320 -336 -441 -465 -121
-129 -223 -236 -226 -238 -4 -1 -270 306 -591 683 l-585 685 -333 0 c-264 0
-332 -3 -326 -12 5 -7 162 -186 349 -398 334 -376 1125 -1270 1151 -1301 12
-13 -5 -37 -132 -180 -376 -422 -830 -961 -1230 -1460 -141 -175 -260 -319
-264 -319 -4 0 -126 125 -271 277 -254 267 -402 423 -609 638 -52 55 -149 156
-215 225 -66 69 -169 177 -229 240 -60 63 -155 162 -211 220 -56 58 -319 332
-586 610 -585 610 -1026 1067 -1247 1293 l-165 167 -238 0 -239 0 0 -983z"/>
<path d="M9285 79682 c-28 -20 -253 -204 -500 -408 -346 -285 -547 -462 -870
-761 -499 -463 -592 -554 -1016 -998 -424 -445 -415 -434 -640 -695 -543 -627
-775 -906 -992 -1190 -78 -102 -225 -293 -327 -425 -293 -378 -208 -260 -825
-1145 -148 -212 -290 -416 -315 -455 -70 -105 -879 -1391 -886 -1408 -3 -9 2
-20 14 -26 18 -10 42 19 259 312 132 177 353 482 493 677 286 400 987 1297
1433 1835 160 193 345 415 411 495 398 479 1131 1266 1621 1740 500 483 576
555 1050 977 488 435 1119 943 1601 1289 162 116 298 214 301 218 4 3 -167 6
-378 6 l-384 -1 -50 -37z"/>
<path d="M23382 79640 c-140 -78 -315 -185 -361 -220 -13 -9 -21 -22 -17 -28
4 -6 46 14 109 52 110 68 380 215 462 252 l50 23 -50 0 c-44 0 -67 -9 -193
-79z"/>
<path d="M31960 79705 c19 -8 143 -56 276 -108 1956 -769 3754 -1931 5701
-3684 674 -608 1526 -1455 2299 -2288 1383 -1490 2813 -3249 4350 -5350 336
-459 1135 -1582 1321 -1855 407 -600 981 -1464 1160 -1745 105 -165 283 -444
395 -620 1004 -1572 1930 -3112 2655 -4414 64 -115 93 -152 93 -120 0 7 -79
161 -176 343 -641 1202 -1503 2704 -2314 4031 -509 833 -979 1569 -1683 2635
-307 465 -1211 1758 -1586 2270 -1546 2109 -2911 3775 -4376 5340 -305 325
-1224 1246 -1505 1506 -1317 1219 -2468 2113 -3675 2851 -753 460 -1576 877
-2318 1172 l-127 51 -263 -1 c-234 0 -258 -2 -227 -14z"/>
<path d="M39656 79711 c5 -5 81 -64 169 -132 680 -520 1544 -1246 2265 -1903
786 -715 1797 -1718 2561 -2541 569 -613 1145 -1265 1408 -1595 1716 -2148
3147 -5308 4261 -9405 549 -2018 1049 -4496 1300 -6436 26 -205 34 -240 83
-390 213 -640 478 -1172 1252 -2509 617 -1066 833 -1456 1158 -2090 1002
-1956 1751 -4123 2238 -6473 340 -1644 467 -3161 363 -4332 -100 -1132 -396
-2018 -837 -2510 -25 -27 -47 -48 -50 -45 -2 3 8 84 23 181 207 1305 224 2606
49 3796 -251 1709 -865 3248 -1934 4844 -273 407 -485 697 -1186 1619 -727
958 -1473 2142 -2239 3560 -216 400 -500 954 -500 976 0 37 -107 611 -165 884
-558 2644 -1579 5241 -3056 7770 -666 1142 -1492 2333 -2423 3495 -968 1208
-2247 2553 -3416 3593 -1290 1148 -2455 2050 -3895 3016 -669 449 -780 520
-1310 841 -198 120 -412 251 -475 290 -63 39 -196 119 -295 177 -1898 1111
-3763 1753 -5625 1937 -419 42 -524 46 -1095 46 -552 0 -672 -5 -1055 -41
-1247 -116 -2526 -456 -3762 -1001 -201 -88 -217 -97 -207 -115 7 -13 16 -17
27 -13 729 287 1538 535 2212 679 807 172 1602 256 2425 256 1974 -1 3829
-479 5790 -1493 532 -275 951 -510 1272 -713 89 -57 338 -211 552 -344 452
-279 653 -406 841 -534 74 -51 326 -223 560 -382 438 -299 506 -347 770 -543
85 -63 277 -205 425 -314 948 -701 1964 -1554 3075 -2582 765 -708 1718 -1691
2359 -2435 1543 -1789 2887 -3780 3991 -5907 443 -855 831 -1720 1163 -2593
613 -1612 988 -2885 1253 -4260 l66 -345 10 -300 c12 -375 3 -3047 -11 -3470
-40 -1181 -97 -2049 -192 -2915 -299 -2746 -933 -5109 -1986 -7404 -202 -439
-564 -1149 -765 -1499 -707 -1233 -1704 -2343 -2908 -3238 -881 -655 -1902
-1223 -2992 -1663 -830 -336 -1677 -598 -2548 -790 -245 -54 -531 -109 -536
-103 -2 2 22 9 53 16 123 27 372 104 539 167 965 359 1948 1047 2944 2060 500
509 963 1050 1457 1704 809 1071 1686 2473 2326 3718 65 128 121 231 123 229
3 -2 -23 -63 -56 -135 -33 -72 -60 -133 -60 -136 0 -61 253 433 477 934 571
1274 1024 2590 1407 4085 98 385 293 1281 336 1551 12 71 50 294 85 497 73
418 87 517 150 1072 25 220 55 476 65 569 11 93 31 379 45 635 14 256 30 538
37 626 8 106 11 403 10 885 -2 727 -10 1019 -37 1348 -51 622 -105 1262 -110
1292 -10 73 -168 1068 -216 1355 -27 165 -71 390 -97 500 -195 813 -358 1465
-365 1465 -16 0 17 -180 203 -1115 66 -334 126 -664 135 -745 16 -149 89 -718
149 -1170 46 -343 43 -305 71 -825 14 -253 30 -523 35 -600 26 -392 32 -712
27 -1465 -3 -435 -10 -834 -16 -895 -6 -60 -24 -326 -41 -590 -32 -512 -34
-535 -80 -890 -16 -126 -43 -360 -60 -520 -42 -403 -52 -473 -130 -960 -102
-630 -134 -812 -195 -1090 -169 -782 -199 -915 -240 -1070 -25 -93 -90 -350
-145 -570 -98 -394 -119 -469 -305 -1095 -254 -851 -838 -2469 -951 -2632 -39
-56 -352 -359 -493 -477 -759 -634 -1751 -1130 -2948 -1475 -467 -135 -1133
-277 -1507 -321 l-60 -7 110 90 c591 484 1239 1164 1792 1881 70 91 156 192
192 225 232 214 523 522 760 806 412 494 814 1132 1115 1769 395 838 702 1686
965 2666 203 758 406 1822 574 3010 61 432 72 530 116 1045 17 195 38 427 46
515 11 118 17 335 21 830 l5 670 -36 565 c-46 717 -39 640 -136 1465 -80 667
-210 1440 -389 2295 -101 485 -106 509 -272 1119 -275 1016 -623 2108 -941
2956 -310 826 -797 1944 -1132 2600 -185 361 -216 417 -230 412 -15 -6 -14 -9
65 -185 599 -1322 1248 -3149 1695 -4770 121 -439 353 -1374 429 -1726 221
-1031 384 -2041 485 -3001 54 -518 59 -583 91 -1170 31 -572 31 -589 25 -1240
l-7 -660 -44 -570 c-56 -715 -67 -814 -176 -1595 -88 -637 -272 -1647 -405
-2224 -489 -2124 -1170 -3692 -2117 -4876 -163 -204 -322 -385 -484 -550 -135
-139 -163 -162 -254 -214 -260 -148 -666 -350 -1092 -542 -377 -170 -1135
-489 -1144 -481 -1 2 36 46 83 98 1515 1657 2695 4038 3463 6984 105 403 244
1004 305 1325 10 47 23 101 31 120 52 126 303 1842 273 1861 -12 8 12 345 43
624 16 140 21 264 24 562 2 211 7 388 11 394 13 22 5 1480 -11 1884 -31 793
-34 851 -105 1725 -60 746 -176 1704 -301 2480 -140 871 -176 1065 -358 1940
-148 709 -197 921 -375 1625 -218 863 -252 987 -406 1495 -54 179 -146 485
-204 680 -155 522 -195 642 -525 1585 -166 473 -303 866 -306 873 -3 7 -9 11
-13 8 -7 -4 148 -530 519 -1761 16 -55 61 -219 100 -365 83 -312 231 -857 324
-1195 99 -359 154 -586 285 -1165 65 -289 148 -647 184 -795 73 -305 368
-1784 421 -2112 131 -805 251 -1640 354 -2468 78 -624 168 -1633 191 -2150 6
-126 19 -398 30 -604 23 -422 22 -396 15 -390 -2 3 -20 108 -40 234 -73 466
-169 968 -280 1460 -211 933 -460 1948 -605 2460 -243 859 -560 1934 -705
2389 -77 243 -540 1617 -620 1841 -125 350 -463 1246 -540 1428 -30 72 -33 27
-3 -65 776 -2448 1735 -5850 2247 -7973 212 -879 448 -2022 530 -2570 l41
-270 0 -415 c0 -228 -4 -518 -9 -645 -6 -126 -13 -328 -17 -448 -5 -172 -9
-217 -19 -213 -7 2 -39 24 -72 47 l-59 42 -99 226 c-463 1056 -926 2147 -1540
3626 -240 579 -1128 2795 -1123 2801 8 7 474 -207 763 -351 273 -135 420 -213
574 -303 71 -42 41 -5 -161 193 -401 396 -765 694 -1387 1137 l-74 53 -199
520 c-317 830 -339 890 -699 1910 -368 1044 -357 1010 -664 2015 -114 371
-220 719 -237 773 -16 53 -34 97 -40 97 -6 0 -7 -13 -3 -32 45 -221 419 -1723
473 -1903 109 -358 525 -1667 616 -1935 57 -168 181 -514 275 -769 94 -255
170 -465 168 -468 -2 -2 -78 42 -168 98 -632 393 -1368 766 -2118 1075 -441
182 -1076 406 -1516 534 -99 29 -183 57 -186 62 -3 5 -32 118 -64 251 l-58
242 -66 55 c-112 94 -568 555 -757 765 -928 1034 -2311 2817 -3648 4705 -103
146 -192 267 -197 268 -5 2 -9 -14 -9 -35 0 -21 -9 -184 -20 -363 -95 -1584
-112 -3473 -44 -5056 l6 -151 -523 -6 c-528 -5 -1032 -23 -1058 -37 -16 -9 63
-70 255 -198 374 -249 738 -433 1189 -603 l180 -67 7 -89 c5 -48 19 -252 33
-453 60 -853 156 -1805 211 -2085 259 -1309 871 -3508 1534 -5507 143 -433
165 -506 146 -496 -46 25 -441 434 -582 603 -846 1020 -2056 2898 -3551 5515
-738 1292 -1356 2415 -1475 2683 -79 178 -113 261 -356 857 -106 261 -468
1193 -557 1435 -490 1335 -617 1689 -945 2630 -651 1867 -1495 4427 -2227
6752 -98 309 -179 560 -181 559 -5 -6 349 -1226 664 -2291 1098 -3705 2017
-6566 2832 -8815 108 -297 398 -1050 485 -1260 46 -113 115 -279 152 -370 38
-91 106 -246 152 -345 73 -158 88 -199 119 -335 355 -1563 922 -3060 1660
-4387 301 -540 621 -1036 923 -1430 60 -79 107 -143 103 -143 -15 0 -187 93
-278 149 -1169 735 -2719 2966 -4378 6301 -402 807 -457 928 -568 1255 -722
2111 -1520 5829 -2132 9935 -36 239 -67 446 -70 460 -29 147 109 -905 229
-1750 392 -2733 844 -5163 1311 -7034 110 -442 177 -688 350 -1297 24 -86 89
-293 144 -460 l101 -304 29 -255 c143 -1232 392 -2353 770 -3465 291 -856 703
-1780 1048 -2355 28 -46 49 -86 47 -88 -3 -3 -103 60 -222 140 -932 622 -1985
1578 -3103 2819 -553 614 -1283 1497 -1407 1704 -116 193 -384 713 -524 1015
-183 397 -201 440 -383 904 -223 568 -433 1217 -604 1866 -182 689 -170 638
-297 1278 -121 612 -154 791 -180 992 -9 69 -41 300 -71 513 -68 488 -99 760
-124 1098 -11 146 -31 403 -45 570 -38 463 -44 596 -55 1089 -22 1009 -23
1213 -6 1700 47 1360 41 1265 134 2328 54 610 84 991 77 989 -5 -2 -25 -100
-42 -218 -40 -266 -239 -1759 -247 -1854 -4 -38 -30 -441 -59 -895 l-52 -825
1 -860 c1 -882 3 -937 49 -1585 14 -190 27 -388 31 -440 21 -356 48 -611 130
-1240 69 -537 100 -717 229 -1335 136 -648 151 -713 321 -1330 218 -794 386
-1280 684 -1975 309 -721 649 -1376 971 -1870 72 -110 98 -162 143 -282 417
-1111 1089 -2381 1953 -3692 214 -325 423 -627 607 -880 72 -99 135 -187 140
-195 17 -29 -285 195 -481 356 -332 272 -884 802 -1199 1153 -1205 1339 -2392
3110 -3593 5360 -178 333 -652 1281 -794 1585 l-107 230 -90 449 c-71 356
-105 559 -165 980 -90 642 -87 618 -125 1046 -16 190 -37 408 -45 485 -31 298
-71 1024 -85 1535 -15 540 -12 1984 5 2457 27 752 66 1457 130 2333 56 765
187 2058 285 2804 22 170 40 316 39 325 -2 44 -94 -419 -185 -934 -130 -740
-232 -1485 -338 -2485 -82 -768 -146 -1818 -167 -2760 -22 -942 7 -1918 87
-2940 18 -230 94 -921 130 -1170 24 -167 131 -788 195 -1125 32 -168 260
-1086 308 -1240 19 -59 33 -134 40 -215 205 -2206 807 -4443 1678 -6230 155
-320 366 -708 469 -865 l19 -29 -23 16 c-48 33 -330 308 -466 453 -803 861
-1471 1923 -2052 3262 -1086 2504 -1782 5924 -1946 9563 -15 340 -16 313 26
803 85 986 291 2194 546 3202 60 237 215 809 254 935 257 839 461 1431 721
2095 127 325 375 920 416 998 6 9 8 17 5 17 -16 0 -317 -567 -473 -894 -194
-404 -213 -449 -433 -991 -204 -503 -261 -656 -382 -1021 l-71 -211 -76 -37
c-510 -251 -1199 -706 -1811 -1197 -1724 -1383 -3110 -3196 -4034 -5279 -516
-1162 -890 -2395 -1126 -3713 -21 -117 -54 -246 -109 -425 -219 -712 -407
-1480 -561 -2295 -26 -142 -50 -260 -52 -261 -2 -1 -86 -35 -188 -75 -887
-351 -1779 -811 -2548 -1314 -84 -55 -154 -98 -156 -96 -19 19 32 1263 74
1804 11 138 26 343 35 458 31 415 145 1524 190 1850 98 709 131 923 215 1390
263 1465 563 2686 942 3837 365 1108 842 2292 1294 3210 406 825 784 1485
1364 2380 718 1110 1537 2127 2500 3104 460 467 953 904 1343 1190 42 31 77
61 77 67 0 14 -17 4 -160 -97 -752 -527 -1650 -1351 -2415 -2219 -994 -1127
-1856 -2372 -2608 -3766 -140 -259 -427 -827 -510 -1009 -36 -80 -107 -235
-157 -345 -456 -994 -905 -2246 -1226 -3419 -384 -1403 -633 -2752 -819 -4431
-29 -262 -89 -1022 -110 -1400 -31 -555 -45 -1073 -46 -1650 0 -324 -4 -578
-9 -564 -31 102 -47 1412 -22 1804 7 105 15 228 17 275 l5 85 -25 -85 c-80
-270 -286 -1138 -385 -1625 -56 -275 -162 -858 -200 -1100 -17 -110 -33 -209
-35 -220 -3 -11 -53 -58 -112 -105 -301 -237 -722 -619 -884 -802 l-59 -66
167 95 c183 103 781 403 805 403 12 0 11 -27 -8 -177 -146 -1153 -201 -2091
-191 -3303 5 -668 10 -818 42 -1315 160 -2454 716 -4844 1618 -6945 325 -759
714 -1510 1032 -1995 l20 -29 -24 16 c-113 79 -1651 1425 -2525 2209 l-249
224 -129 205 c-181 289 -241 392 -443 755 -230 413 -560 1082 -720 1460 -37
88 -119 282 -183 430 -63 149 -196 493 -294 765 -260 715 -213 570 -539 1665
-91 307 -399 1583 -454 1880 -14 77 -77 437 -140 800 -105 599 -122 712 -180
1220 -36 308 -79 675 -95 816 -42 359 -55 539 -106 1491 l-45 838 7 1017 6
1018 69 1105 c37 607 66 1106 64 1109 -3 2 -7 2 -10 -1 -3 -3 -57 -495 -121
-1094 -130 -1226 -121 -1094 -157 -2409 -16 -584 -21 -892 -15 -1070 21 -747
51 -1477 68 -1665 10 -112 75 -732 146 -1395 26 -248 65 -509 154 -1050 65
-396 131 -776 145 -845 45 -214 354 -1468 396 -1610 126 -419 364 -1182 402
-1290 206 -577 381 -1024 517 -1320 59 -129 134 -293 165 -365 218 -495 652
-1309 977 -1835 101 -163 340 -513 493 -725 84 -116 127 -189 243 -420 817
-1619 2253 -3663 4281 -6095 677 -812 1510 -1763 2179 -2488 128 -138 229
-252 224 -252 -18 0 -219 93 -412 190 -819 413 -1880 1152 -3070 2139 -570
472 -1359 1171 -1421 1259 -18 26 -157 214 -309 417 -280 373 -889 1244 -1278
1827 -109 163 -468 734 -627 998 -78 129 -220 363 -315 520 -279 460 -469 797
-857 1520 -468 871 -896 1737 -1218 2463 -76 172 -105 223 -105 187 0 -14 133
-392 211 -597 404 -1072 1018 -2361 1655 -3475 371 -650 830 -1374 1260 -1989
223 -318 707 -971 909 -1224 162 -205 627 -768 706 -856 63 -71 80 -102 272
-495 112 -230 370 -749 571 -1153 202 -403 366 -735 364 -736 -2 -2 -53 27
-113 64 -395 241 -741 521 -1189 961 -232 228 -576 594 -576 612 0 6 -39 51
-86 101 -223 234 -688 818 -970 1217 -43 60 -81 105 -84 100 -18 -30 -738
1043 -1093 1630 -337 556 -931 1631 -1098 1985 -25 55 -116 240 -201 410 -176
355 -235 479 -358 753 -48 109 -138 307 -200 441 -131 289 -223 500 -291 668
-27 68 -121 299 -210 515 -310 754 -657 1710 -962 2648 -279 859 -289 891
-537 1770 -111 393 -204 717 -206 719 -26 28 15 -176 187 -929 150 -657 167
-729 224 -935 86 -310 421 -1450 465 -1580 22 -65 40 -120 40 -121 0 -1 -13
-5 -30 -9 -24 -5 -29 -11 -25 -28 3 -12 25 -148 50 -302 583 -3598 1762 -7005
3442 -9955 787 -1380 1703 -2678 2603 -3688 87 -98 156 -179 154 -181 -8 -8
-489 239 -654 335 -532 311 -1047 693 -1540 1143 -167 152 -538 521 -710 706
-1529 1648 -2930 4000 -4157 6979 -464 1128 -928 2432 -1307 3681 -42 138 -78
255 -80 260 -3 6 -5 -276 -5 -627 -1 -601 0 -636 16 -632 15 4 32 -39 112
-278 169 -511 358 -1039 572 -1602 55 -143 99 -263 99 -268 0 -4 -60 -5 -132
-2 -272 13 -439 -32 -610 -163 l-58 -44 0 -70 0 -70 72 61 c134 113 258 172
397 189 58 7 301 -9 367 -24 16 -4 39 -51 112 -234 446 -1117 910 -2130 1415
-3093 57 -109 102 -200 99 -203 -3 -3 -34 -5 -68 -5 -163 0 -462 -61 -650
-133 -251 -97 -496 -259 -701 -464 -349 -351 -644 -850 -787 -1333 l-16 -54
229 230 c647 651 1076 932 1548 1015 109 20 164 23 373 23 213 1 418 -12 482
-30 9 -3 82 -114 162 -247 79 -134 194 -323 256 -422 l112 -180 24 -120 c50
-250 91 -335 238 -480 56 -55 148 -134 204 -175 96 -70 110 -85 219 -235 110
-151 307 -412 420 -555 l51 -65 -44 -105 c-186 -439 -421 -808 -609 -958 -127
-102 -208 -130 -322 -112 -83 13 -290 82 -437 144 -237 102 -739 364 -1039
543 -802 478 -1423 914 -1936 1359 -62 55 -126 109 -142 122 l-29 23 0 -344 0
-344 128 -95 c731 -545 1682 -1082 2522 -1426 280 -114 651 -226 839 -253 225
-32 398 36 581 227 194 203 369 562 496 1017 l39 138 30 -38 c235 -297 618
-725 941 -1053 l272 -275 135 -545 c107 -429 278 -1079 313 -1191 3 -12 -31
-43 -126 -114 -387 -286 -765 -472 -1111 -546 -146 -31 -366 -32 -534 -1 -366
68 -930 264 -1660 577 -1002 429 -1913 923 -2685 1454 l-175 121 -3 -133 -3
-132 38 -34 c82 -73 487 -394 653 -517 422 -315 930 -654 1405 -936 788 -468
1616 -833 2216 -977 241 -58 301 -66 514 -65 204 1 319 18 529 79 49 14 90 24
91 23 2 -2 31 -138 64 -303 564 -2742 1353 -5658 2260 -8355 1123 -3339 2424
-6340 3825 -8824 l107 -188 -30 -77 c-156 -410 -255 -861 -400 -1836 -92 -616
-93 -620 -107 -593 -6 13 -148 356 -314 763 -166 407 -343 839 -392 960 -50
121 -233 609 -408 1085 -175 476 -463 1259 -640 1740 -177 481 -380 1051 -450
1265 -148 450 -386 1178 -660 2014 -243 744 -249 764 -864 2906 -137 476 -588
2261 -685 2710 -33 154 -101 469 -151 700 -84 386 -223 1110 -266 1384 -10 62
-20 108 -22 103 -10 -31 147 -994 253 -1555 164 -860 199 -1033 354 -1717 82
-366 177 -786 210 -935 34 -148 99 -416 145 -595 147 -574 515 -1977 586
-2235 93 -338 954 -3206 1028 -3425 33 -96 303 -890 600 -1765 309 -910 599
-1744 677 -1950 75 -198 162 -425 192 -505 30 -80 188 -494 350 -920 163 -426
298 -784 300 -795 12 -58 -145 -438 -224 -540 -65 -84 -103 -106 -319 -179
-109 -38 -377 -134 -594 -213 l-394 -146 -39 44 c-34 38 -958 1241 -1315 1712
-153 202 -344 475 -670 957 -140 206 -337 497 -439 645 -362 528 -484 717
-828 1280 -192 314 -455 743 -585 955 -289 471 -281 457 -690 1195 -183 330
-359 645 -390 700 -101 176 -303 551 -457 850 -318 614 -957 1893 -1086 2170
-703 1515 -806 1742 -1234 2745 -331 775 -850 2065 -1120 2785 -102 274 -493
1343 -564 1545 l-58 165 0 -142 -1 -142 121 -348 c66 -191 159 -458 205 -593
170 -495 253 -721 539 -1485 409 -1089 539 -1419 1030 -2606 222 -535 925
-2130 1114 -2527 492 -1031 1000 -2060 1207 -2442 64 -118 277 -516 473 -885
197 -368 410 -758 473 -865 611 -1040 1066 -1809 1139 -1925 48 -77 265 -410
483 -740 952 -1449 794 -1222 1699 -2445 301 -408 550 -747 553 -754 3 -8 -12
-19 -43 -31 -110 -41 -677 -258 -1078 -412 -236 -91 -440 -169 -452 -174 -20
-7 -25 4 -102 231 -263 778 -739 1852 -1398 3150 -373 736 -645 1257 -1428
2740 -958 1814 -1340 2550 -1793 3455 -994 1989 -1573 3258 -2202 4830 -164
410 -395 1026 -476 1270 l-63 190 -1 -682 0 -682 59 -153 c485 -1263 1339
-3128 2137 -4671 729 -1407 1291 -2435 2632 -4807 1386 -2452 1888 -3394 2273
-4261 92 -209 248 -597 251 -628 3 -19 -7 -26 -57 -46 -33 -14 -476 -186 -985
-383 -1527 -593 -3138 -1225 -5362 -2103 l-948 -374 0 -424 c0 -398 1 -423 17
-418 10 2 396 154 858 337 5146 2035 8857 3470 9879 3819 230 79 287 105 391
179 311 219 535 636 689 1282 71 298 131 634 221 1250 157 1067 262 1504 451
1883 126 251 301 451 456 522 772 351 5238 452 12808 290 3396 -73 7926 -221
9815 -321 160 -9 259 -45 425 -157 264 -179 471 -485 565 -839 14 -51 38 -169
55 -263 88 -489 300 -1271 642 -2370 211 -679 445 -1394 462 -1412 9 -9 3766
-1809 6166 -2954 l375 -179 1476 -193 1476 -193 564 -366 c310 -201 634 -411
719 -466 85 -55 270 -175 410 -265 140 -91 495 -320 788 -510 529 -343 534
-346 605 -357 704 -110 1894 -373 3492 -770 947 -236 2402 -614 2417 -628 6
-6 238 -2698 238 -2760 l0 -22 399 0 399 0 -4 37 c-3 21 -47 544 -100 1163
-52 619 -102 1218 -112 1331 l-18 207 66 6 c36 3 173 6 305 6 1202 0 2273
-244 3280 -748 816 -408 1597 -987 2421 -1795 l212 -207 543 2 543 3 -154 165
c-828 889 -1527 1504 -2280 2007 -193 128 -346 222 -543 334 -78 44 -149 88
-158 97 -9 9 -125 197 -259 417 -377 619 -2471 4019 -2483 4030 -6 6 -1 -6 10
-25 12 -19 384 -683 828 -1475 444 -792 880 -1568 968 -1725 88 -157 253 -449
367 -650 114 -201 212 -375 218 -387 11 -19 1 -17 -85 23 -448 208 -985 394
-1476 509 -114 27 -120 30 -141 64 -12 20 -357 639 -766 1376 -409 737 -748
1345 -753 1350 -7 7 -8 7 -5 0 12 -24 269 -502 720 -1340 267 -495 509 -945
538 -1000 30 -55 91 -169 136 -252 45 -84 79 -153 76 -153 -4 0 -75 13 -157
29 -407 79 -1000 141 -1352 141 -72 0 -142 4 -155 9 -19 7 -169 290 -733 1383
-390 755 -789 1528 -886 1716 l-178 344 100 186 c792 1478 1492 3219 2008
4996 34 115 63 211 65 213 2 2 108 -168 236 -379 128 -211 427 -697 663 -1082
l430 -699 -28 -96 c-98 -343 -164 -543 -297 -906 -175 -479 -208 -560 -318
-795 -45 -96 -105 -227 -132 -290 -100 -228 -150 -321 -467 -868 -84 -145
-150 -270 -147 -278 3 -8 12 -14 21 -14 14 0 422 600 540 795 56 92 323 602
424 810 100 205 419 971 492 1180 34 99 66 184 69 188 4 5 72 -97 150 -225
267 -433 824 -1330 1172 -1883 189 -302 558 -890 818 -1305 548 -873 1241
-1968 1655 -2615 159 -247 664 -1037 1123 -1755 459 -718 961 -1500 1115
-1737 l281 -433 849 0 c678 0 847 3 840 13 -6 6 -267 369 -582 804 -314 436
-876 1208 -1248 1715 -372 508 -904 1234 -1182 1613 -818 1118 -1382 1881
-2106 2850 -197 264 -611 818 -918 1230 -531 711 -1159 1545 -1571 2085 -150
196 -186 250 -183 270 3 14 41 165 86 335 121 457 183 709 246 1000 31 143 60
268 63 277 5 12 184 -228 657 -880 357 -493 1228 -1689 1935 -2657 707 -968
1537 -2104 1845 -2525 1112 -1523 1627 -2222 3076 -4180 376 -509 855 -1156
1063 -1437 l379 -513 279 0 c221 0 278 3 272 12 -4 7 -483 632 -1063 1388
-580 756 -1262 1645 -1515 1975 -599 781 -1392 1807 -2191 2835 -353 454 -956
1230 -1340 1725 -1385 1784 -2163 2784 -2767 3554 l-614 785 44 225 c147 768
232 1323 331 2166 68 580 81 713 116 1230 14 204 27 397 30 430 3 33 19 402
36 820 44 1111 44 2062 -1 3345 -51 1462 -130 2527 -326 4385 -137 1308 -391
3081 -639 4470 -267 1492 -707 3623 -955 4625 -42 171 -71 320 -105 545 -352
2355 -814 4738 -1361 7024 l-85 354 10 128 c36 441 34 1117 -4 1669 -160 2320
-906 5281 -1933 7675 -485 1132 -896 1924 -1867 3600 -462 797 -612 1068 -800
1445 -193 385 -327 702 -424 1000 -44 136 -53 180 -76 365 -131 1044 -382
2496 -650 3761 -684 3225 -1592 6071 -2689 8429 -59 127 -195 406 -303 621
l-195 391 225 679 c262 789 847 2584 1135 3484 312 971 1324 4183 1438 4563 5
16 -24 17 -523 17 l-529 0 -27 -117 c-14 -65 -88 -381 -162 -703 -124 -531
-328 -1420 -701 -3055 -195 -853 -745 -3339 -921 -4162 -48 -227 -90 -413 -93
-413 -3 1 -50 82 -105 182 -526 954 -1181 1911 -1810 2643 -322 375 -761 864
-1144 1273 -135 145 -269 289 -297 320 l-51 57 303 1965 c167 1081 304 1975
304 1988 l0 22 -535 0 c-294 0 -535 -2 -535 -4 0 -2 -29 -338 -65 -747 -35
-409 -96 -1122 -135 -1584 -40 -462 -75 -848 -78 -857 -6 -13 -74 50 -307 278
-165 162 -319 311 -342 332 -23 20 -126 118 -230 217 -165 158 -525 491 -740
685 l-72 65 72 805 73 805 -54 3 c-30 2 -55 2 -57 0 -1 -2 -20 -354 -40 -783
-21 -429 -39 -782 -41 -783 -1 -2 -80 65 -176 150 -485 430 -1193 1019 -1664
1386 l-42 32 -278 0 c-165 0 -274 -4 -268 -9z m4901 -2928 c-3 -10 -5 -4 -5
12 0 17 2 24 5 18 2 -7 2 -21 0 -30z m-57 -460 c-28 -230 -55 -427 -59 -438
-7 -18 -9 -18 -25 6 -16 25 -14 43 56 449 40 232 74 417 76 411 2 -5 -20 -198
-48 -428z m-26624 -4630 c-185 -622 -331 -1238 -450 -1908 -88 -495 -101 -585
-160 -1135 -48 -435 -76 -955 -76 -1384 l0 -148 -51 -74 c-32 -45 -58 -74 -69
-74 -13 0 -24 -16 -37 -52 -10 -30 -104 -183 -214 -348 -1182 -1781 -2160
-3758 -2892 -5845 -97 -276 -240 -706 -297 -895 -18 -58 -35 -108 -39 -112 -3
-3 -100 -23 -216 -43 -727 -125 -1527 -315 -2169 -516 -71 -23 -136 -43 -144
-47 -25 -9 -8 1278 28 2088 9 195 17 274 50 465 380 2224 1196 4280 2393 6025
1112 1620 2606 3030 4151 3917 99 57 184 103 189 103 4 0 6 -8 3 -17z m-781
-5899 c142 -1863 455 -3790 880 -5413 655 -2504 1568 -4473 2734 -5895 392
-478 594 -673 1831 -1771 569 -505 1048 -930 1064 -944 26 -24 25 -20 -11 34
-865 1300 -1496 2257 -1552 2354 -181 312 -401 752 -586 1176 -496 1134 -901
2454 -1149 3745 -58 303 -65 343 -56 333 3 -4 64 -116 135 -248 762 -1428
1643 -2826 2473 -3925 523 -692 954 -1193 1497 -1736 428 -429 753 -715 1115
-981 141 -103 1971 -1366 1974 -1362 2 2 -303 405 -676 894 -373 490 -762
1007 -865 1150 -523 731 -1226 1854 -1553 2480 l-52 100 43 -45 c23 -25 133
-142 243 -260 243 -260 795 -815 1036 -1040 611 -572 1174 -1031 1698 -1384
148 -100 1149 -728 1587 -996 l40 -24 -21 29 c-85 121 -863 1339 -926 1450
-518 908 -1016 2194 -1326 3420 -88 345 -207 894 -200 916 2 5 50 -80 106
-190 606 -1172 1242 -2263 1833 -3147 417 -623 800 -1129 1192 -1575 l76 -86
-155 -74 c-86 -40 -158 -78 -161 -83 -3 -5 -2 -7 3 -4 5 3 87 29 182 58 l172
53 233 -230 c232 -230 399 -376 577 -506 52 -39 99 -74 104 -78 4 -4 -72 -60
-170 -124 -315 -206 -639 -437 -989 -704 -133 -101 -553 -435 -609 -485 -21
-18 -20 -18 9 0 429 262 1004 527 1640 757 99 36 191 68 205 72 17 5 -29 -47
-135 -156 -486 -497 -957 -1186 -1450 -2119 -192 -362 -466 -945 -577 -1225
-23 -60 -28 -65 143 145 462 569 986 1099 1504 1523 77 63 141 114 143 112 2
-2 -51 -71 -117 -154 -413 -518 -844 -1152 -1205 -1774 -187 -323 -199 -353
-55 -137 661 995 1594 1968 2689 2806 266 204 327 244 443 288 135 52 357 125
487 160 92 24 297 66 325 66 7 0 62 -60 122 -132 174 -215 280 -334 422 -480
112 -115 131 -139 115 -144 -589 -207 -1041 -594 -1501 -1284 -498 -748 -782
-1582 -853 -2509 -13 -173 -13 -684 0 -866 40 -553 142 -1087 315 -1658 167
-552 416 -1145 679 -1621 36 -66 66 -120 66 -121 0 -1 -24 0 -52 1 -29 2 -235
5 -458 7 l-405 4 92 -23 c379 -92 1684 -266 2948 -393 1169 -118 1975 -173
2525 -174 404 -1 494 15 725 130 312 155 666 477 978 890 5 7 -38 -3 -95 -23
-362 -122 -875 -210 -1658 -284 -118 -11 -222 -20 -232 -20 -13 0 -4 22 44
103 81 135 212 399 283 567 134 318 275 801 350 1195 102 539 139 967 139
1595 -1 652 -46 1140 -159 1705 -93 464 -230 798 -493 1205 -576 892 -1466
1524 -2317 1648 l-120 17 -107 319 c-60 176 -106 321 -104 324 3 2 98 -3 213
-12 2614 -207 4437 -1196 5362 -2912 177 -329 378 -847 435 -1124 100 -487
-29 -1343 -369 -2454 -71 -233 -197 -611 -250 -751 -14 -37 -24 -70 -22 -72 2
-1 32 42 66 97 34 55 116 171 181 258 532 708 1415 1416 2393 1917 l218 112
-93 6 c-192 13 -413 56 -628 122 -130 40 -302 103 -313 114 -5 5 13 12 40 15
79 12 248 72 356 128 383 196 813 593 1211 1117 47 62 86 117 86 120 0 4 -53
43 -117 87 -824 555 -1534 1226 -1816 1716 -15 26 -27 53 -27 60 0 7 29 32 63
55 102 69 260 206 401 349 73 74 135 134 139 134 4 0 336 -241 738 -536 402
-294 732 -534 734 -532 1 2 -266 324 -593 717 -433 519 -593 717 -586 726 65
93 236 354 286 440 66 113 178 318 178 327 0 3 -89 8 -197 12 -332 11 -849 45
-950 61 -28 5 -41 20 -111 133 -135 216 -228 386 -372 677 -460 932 -860 2078
-1206 3459 -41 164 -73 300 -71 302 2 2 25 -36 52 -84 831 -1500 1714 -2926
2458 -3971 734 -1030 1421 -1805 1958 -2207 l86 -65 -23 -177 c-212 -1624
-682 -3515 -1254 -5047 -572 -1533 -1281 -2868 -2079 -3915 -311 -409 -446
-561 -1264 -1430 -272 -289 -494 -526 -492 -528 4 -5 1570 612 1860 733 149
62 349 147 445 190 96 42 182 79 190 82 24 9 -411 -426 -580 -580 -206 -187
-360 -314 -907 -747 -253 -201 -460 -366 -459 -366 5 -6 1284 132 1451 156
720 106 1579 336 2283 612 84 33 156 58 158 55 9 -8 -292 -1149 -453 -1722
l-95 -339 -126 -166 c-972 -1272 -1953 -2247 -2904 -2888 -248 -167 -478 -301
-738 -431 -548 -273 -984 -406 -1555 -472 -55 -7 -103 -15 -107 -18 -7 -6 47
-680 56 -688 15 -15 350 33 721 103 1186 225 2378 591 3429 1053 77 33 141 59
144 56 14 -14 -374 -1074 -573 -1565 -251 -620 -267 -656 -503 -1145 -71 -148
-154 -313 -184 -365 -172 -301 -328 -563 -371 -620 -276 -369 -927 -922 -1907
-1622 -1207 -862 -2969 -1977 -5010 -3170 -2619 -1532 -5289 -2991 -6147
-3359 -576 -247 -1151 -428 -1713 -539 -539 -107 -910 -138 -1270 -106 -862
76 -1763 325 -2595 718 -468 220 -1565 794 -2575 1346 -4225 2309 -7862 4565
-9455 5867 -378 309 -722 638 -861 825 -132 177 -425 700 -622 1110 -326 678
-699 1620 -1083 2735 -120 349 -378 1138 -374 1143 2 2 70 -48 152 -110 562
-433 1127 -771 1718 -1026 109 -47 705 -279 1237 -482 l47 -18 -81 122 c-45
66 -192 285 -328 486 -267 395 -382 577 -556 881 -728 1271 -1302 2675 -1618
3959 -70 283 -82 340 -68 325 5 -5 49 -57 98 -115 313 -369 890 -967 1164
-1206 349 -305 643 -526 920 -691 106 -63 1089 -613 1096 -613 3 0 -227 461
-511 1025 -284 564 -514 1025 -510 1025 3 0 106 -82 228 -183 1318 -1086 2470
-1865 3337 -2257 93 -42 1569 -657 1660 -692 l25 -9 -26 28 c-14 15 -257 273
-539 573 -713 756 -741 785 -981 1050 -2186 2408 -4138 4881 -5316 6735 -202
319 -258 412 -237 394 10 -9 168 -146 349 -304 536 -468 897 -775 1675 -1426
404 -338 842 -704 974 -814 341 -286 372 -311 360 -295 -6 8 -179 258 -384
555 -205 297 -544 787 -753 1088 -501 724 -609 905 -940 1567 -190 379 -307
633 -472 1025 -91 216 -100 244 -151 465 -167 730 -205 1281 -114 1636 132
511 414 1117 722 1552 137 194 363 468 466 566 l31 28 96 -193 c154 -310 1050
-2027 1053 -2019 1 4 -40 432 -92 951 -52 519 -104 1066 -116 1214 -34 453
-51 768 -43 776 16 15 243 149 374 220 230 125 498 246 784 354 279 105 701
234 715 219 11 -12 380 -879 380 -893 0 -5 -28 -31 -62 -57 -588 -448 -1089
-1113 -1326 -1762 -104 -283 -209 -844 -257 -1372 -50 -562 -45 -1267 15
-1800 71 -631 210 -1220 407 -1720 74 -190 223 -498 313 -648 34 -57 59 -106
57 -108 -6 -7 -296 19 -587 52 -568 63 -1003 145 -1297 243 -84 28 -110 33
-103 22 62 -114 484 -553 656 -683 241 -183 462 -288 664 -316 345 -48 1336 4
2800 148 1293 128 2653 309 3070 409 l75 18 -405 -4 c-223 -2 -429 -5 -457 -7
-29 -1 -53 -1 -53 2 0 2 23 45 52 96 88 156 280 552 366 753 342 804 547 1587
627 2393 22 221 30 723 16 950 -32 487 -111 904 -253 1340 -231 710 -668 1440
-1145 1912 -161 160 -256 238 -413 343 -689 458 -1471 486 -2280 80 l-108 -54
-6 57 c-11 103 -57 764 -54 767 16 16 661 103 953 130 621 55 1486 70 1710 29
203 -38 463 -115 698 -206 115 -45 143 -61 285 -165 1127 -828 2143 -1867
2831 -2893 130 -193 161 -236 118 -160 -432 770 -860 1413 -1365 2049 -63 79
-108 140 -101 135 25 -14 211 -167 334 -272 461 -398 932 -890 1363 -1425 62
-76 112 -136 112 -133 0 3 -38 92 -83 198 -431 996 -955 1933 -1451 2593 -185
247 -332 420 -530 623 -76 78 -136 142 -132 142 13 0 367 -131 556 -205 439
-173 898 -388 1168 -549 78 -46 142 -83 142 -81 0 6 -350 288 -530 427 -915
706 -1772 1238 -2360 1465 -63 24 -124 47 -135 52 -21 8 432 20 849 22 144 1
306 4 361 8 l100 6 -135 47 c-182 64 -335 109 -569 168 -1245 311 -2649 363
-3995 145 -88 -14 -161 -24 -163 -22 -18 19 148 1762 171 1784 13 14 469 35
841 40 546 7 863 -8 1375 -62 160 -18 502 -62 538 -70 l23 -6 -21 -28 -20 -29
667 -408 c368 -224 679 -414 693 -422 23 -14 24 -14 10 0 -8 8 -248 201 -532
427 -285 227 -518 414 -518 416 0 2 8 1 18 -1 9 -2 91 -17 182 -34 173 -33
565 -119 991 -219 370 -86 394 -86 139 5 -551 195 -790 269 -1205 373 -977
244 -1958 322 -2958 235 -104 -9 -190 -14 -193 -11 -6 6 57 440 122 836 114
694 244 1340 410 2036 61 256 191 765 196 771 2 1 138 25 303 53 457 76 698
104 1020 116 632 24 1184 145 1780 390 l155 63 9 -37 c6 -20 35 -139 65 -266
43 -181 99 -360 260 -840 240 -717 247 -737 494 -1315 350 -821 323 -765 749
-1570 331 -623 406 -755 611 -1075 75 -115 252 -392 395 -615 143 -223 282
-439 310 -480 85 -127 1197 -1579 1218 -1590 16 -9 19 -7 19 10 0 29 -244 437
-553 925 -446 702 -406 635 -857 1455 -123 223 -271 489 -331 591 -129 224
-147 259 -340 671 -83 177 -225 474 -314 658 -184 376 -209 436 -411 952 -79
203 -179 455 -223 560 -94 230 -180 481 -383 1118 -143 452 -306 1047 -290
1061 4 3 68 41 142 84 206 119 539 345 540 366 0 8 -203 18 -495 25 -132 3
-258 7 -281 10 l-41 5 -31 152 c-17 84 -43 222 -56 307 -14 85 -52 305 -86
488 -69 383 -103 610 -124 837 -8 88 -27 259 -40 380 -49 423 -79 983 -84
1575 -4 525 -2 599 34 1240 24 432 89 1062 121 1175 3 11 31 61 62 110 l56 90
7 -90 c4 -49 19 -239 33 -421z m-389 -67 c-10 -39 -104 -566 -120 -672 -68
-440 -118 -1012 -144 -1625 -13 -307 3 -1137 27 -1410 70 -805 74 -833 205
-1670 25 -157 49 -305 55 -330 6 -25 11 -51 11 -57 0 -10 -38 -13 -157 -13
-715 0 -1830 -75 -2482 -165 -57 -8 -107 -13 -109 -10 -6 6 171 546 295 900
520 1481 1188 2950 1945 4280 113 198 470 795 476 795 2 0 2 -10 -2 -23z
m15886 -1487 c1524 -2097 2776 -3641 3615 -4460 l220 -215 22 -93 c11 -52 21
-95 21 -97 0 -1 -53 11 -117 27 -779 197 -1799 373 -2593 447 -58 6 -199 19
-315 30 -217 21 -608 45 -916 57 l-176 7 -7 151 c-54 1250 -56 2679 -6 4081
11 311 17 382 30 369 4 -5 104 -142 222 -304z m-21892 -5013 l0 -232 -51 -18
c-28 -10 -52 -17 -53 -15 -2 2 14 89 34 194 53 268 61 304 66 304 2 0 4 -105
4 -233z m21855 -321 c275 -62 512 -91 900 -111 156 -8 327 -19 381 -25 658
-71 1648 -274 2759 -566 190 -50 215 -58 215 -75 0 -7 45 -159 99 -338 806
-2640 1829 -4766 2925 -6080 76 -90 135 -165 133 -167 -6 -6 -320 80 -519 141
-349 108 -631 212 -1308 483 -892 356 -1317 501 -1915 652 -825 209 -1549 306
-2432 326 -167 4 -303 9 -303 11 0 2 -31 112 -70 245 -38 133 -68 243 -67 245
13 12 395 45 671 58 381 17 777 13 1080 -11 104 -8 190 -13 193 -10 7 6 -278
73 -412 95 -313 53 -487 70 -850 82 -255 9 -415 9 -550 2 -104 -5 -191 -9
-192 -8 -8 4 -245 886 -239 892 6 6 225 29 461 49 258 21 1013 30 1305 15 917
-47 1750 -183 2644 -432 98 -27 180 -48 183 -46 6 7 -292 128 -492 200 -611
222 -1309 380 -1995 451 -633 67 -1417 55 -2039 -30 -93 -12 -116 -13 -122 -2
-19 29 -241 960 -333 1393 -73 346 -156 1113 -231 2155 -31 424 -31 443 -7
436 9 -3 67 -17 127 -30z m-19299 -373 c-20 -70 -95 -369 -145 -578 -443
-1855 -700 -3702 -771 -5538 -17 -441 -13 -1503 6 -1597 29 -140 -197 442
-336 865 -495 1513 -811 3510 -915 5780 -8 182 -17 374 -19 428 -5 94 -4 98
17 107 61 27 754 212 1249 335 309 77 874 209 911 214 5 1 6 -7 3 -16z m24229
-577 c323 -93 670 -198 1061 -323 l301 -95 27 -157 c15 -86 61 -322 101 -526
355 -1788 824 -3348 1370 -4550 216 -476 499 -990 691 -1252 25 -35 43 -63 40
-63 -8 0 -202 155 -286 229 -108 94 -267 248 -395 381 -1136 1190 -2206 3297
-3079 6070 -115 364 -117 370 -103 365 7 -2 129 -38 272 -79z m-26761 -128 c3
-35 10 -180 16 -323 36 -878 125 -1892 236 -2703 19 -145 34 -265 32 -267 -1
-2 -52 -22 -113 -44 -123 -47 -405 -164 -401 -168 1 -1 74 18 161 43 255 71
357 96 365 87 4 -4 17 -75 30 -158 58 -390 174 -996 271 -1414 27 -118 48
-215 46 -217 -2 -2 -84 -30 -183 -63 -243 -80 -568 -199 -869 -319 l-250 -100
-3 457 c-9 1334 85 3041 243 4391 24 200 96 763 99 767 2 3 292 91 303 92 7 1
13 -23 17 -61z m-694 -158 c0 -5 -18 -152 -40 -327 -269 -2154 -351 -4623
-235 -7103 20 -422 52 -927 79 -1250 12 -146 21 -266 20 -268 -9 -13 -377 736
-565 1151 -842 1854 -1429 3767 -1754 5707 -57 342 -113 728 -143 993 -18 153
-18 158 0 168 69 37 876 344 1309 497 384 137 1293 440 1322 442 4 0 7 -4 7
-10z m29266 -284 c640 -217 1823 -663 1852 -699 5 -7 62 -149 125 -317 64
-168 262 -659 441 -1091 589 -1428 854 -2040 1256 -2904 100 -214 243 -523
318 -685 75 -162 295 -613 489 -1002 194 -390 350 -708 347 -708 -32 0 -481
431 -696 669 -1082 1195 -2538 3454 -4058 6296 -261 488 -270 505 -266 505 2
0 88 -29 192 -64z m-9946 -696 c382 -675 828 -1441 1198 -2055 l181 -300 -32
-12 -32 -13 38 3 38 3 76 -125 c42 -70 157 -256 255 -414 98 -158 178 -291
178 -295 0 -4 -30 -16 -67 -26 -38 -11 -148 -45 -246 -77 l-178 -57 -23 37
c-134 213 -384 667 -560 1018 -318 637 -562 1215 -811 1923 -84 239 -255 772
-255 795 0 18 21 -18 240 -405z m-22289 -332 c198 -1540 573 -3111 1107 -4635
34 -95 58 -174 54 -177 -14 -8 -373 -86 -537 -116 -320 -58 -887 -131 -902
-117 -14 15 -47 575 -64 1092 -13 386 -7 1368 11 1725 36 742 91 1388 176
2050 52 410 44 372 84 391 19 10 37 16 38 14 2 -2 17 -104 33 -227z m24428
-3243 l108 -170 -56 -13 c-31 -8 -146 -36 -256 -63 l-200 -50 -20 25 c-31 40
-208 316 -204 319 11 8 487 125 502 124 11 -1 58 -66 126 -172z m18971 -352
c94 -172 382 -673 528 -918 523 -876 999 -1592 1489 -2238 889 -1172 1137
-1519 1485 -2077 1152 -1848 1708 -3764 1708 -5880 0 -803 -62 -1441 -245
-2535 -57 -341 -103 -621 -101 -622 7 -8 757 611 812 669 214 229 413 583 575
1026 55 150 145 454 180 610 13 56 26 102 29 102 5 0 131 -549 241 -1050 228
-1046 505 -2450 495 -2505 -4 -19 12 -105 44 -240 102 -430 364 -2007 544
-3280 908 -6412 964 -12299 165 -17305 -727 -4550 -2154 -8348 -4261 -11343
-147 -208 -450 -617 -576 -777 -41 -52 -76 -96 -76 -97 -1 -1 -177 40 -391 91
-215 52 -416 100 -447 106 -32 7 -58 17 -58 21 0 4 40 74 89 156 1281 2149
2185 4982 2610 8188 147 1103 231 2130 283 3465 17 436 17 2294 0 2755 -49
1312 -115 2299 -238 3520 -156 1564 -397 3267 -695 4913 -33 183 -57 337 -54
342 3 6 22 10 42 10 l36 0 -7 43 c-7 45 -724 4153 -782 4482 -43 245 -106 551
-314 1525 -573 2692 -684 3199 -880 4025 -115 484 -270 1141 -345 1460 -133
560 -432 1765 -441 1774 -9 9 -2 -27 81 -405 122 -552 163 -751 476 -2309 224
-1112 323 -1636 499 -2620 549 -3077 569 -3196 620 -3555 16 -118 147 -1054
290 -2080 356 -2550 334 -2396 350 -2392 24 5 6 -1368 -30 -2298 -159 -4139
-701 -8118 -1586 -11660 -617 -2471 -1378 -4663 -2330 -6710 -214 -462 -757
-1529 -778 -1530 -4 0 -454 289 -998 641 l-991 641 -94 14 c-52 7 -97 15 -100
18 -3 2 114 204 260 448 357 598 342 572 660 1178 293 559 325 624 569 1170
496 1110 991 2455 1373 3727 371 1237 764 2958 984 4313 227 1390 351 2367
460 3615 129 1463 181 2544 200 4105 21 1705 -39 3268 -209 5490 -91 1185
-331 3060 -529 4135 -109 591 -112 605 -138 605 -28 0 -29 -13 -8 -155 73
-516 204 -1827 274 -2740 310 -4033 277 -8106 -94 -11810 -233 -2316 -552
-4298 -1001 -6208 -589 -2513 -1355 -4705 -2344 -6712 -91 -186 -536 -1028
-596 -1128 -10 -18 -73 -11 -1345 157 l-1334 175 -2240 1071 c-1232 589 -2243
1075 -2248 1079 -4 4 23 90 59 192 1142 3184 2064 6933 2703 10984 491 3114
823 6432 966 9655 24 537 55 1434 55 1576 l0 62 78 11 c308 45 843 219 1302
423 1270 565 2811 1614 3839 2613 142 138 439 455 582 620 284 330 501 641
684 984 72 134 155 318 155 341 0 3 -42 -80 -94 -185 -210 -425 -452 -743
-907 -1190 -242 -239 -438 -405 -749 -639 -925 -693 -2048 -1319 -3314 -1845
-612 -255 -1118 -427 -1434 -487 -187 -36 -407 -38 -561 -5 -253 54 -531 171
-784 329 -74 45 -88 59 -84 76 12 55 141 513 149 529 5 9 36 31 70 48 34 17
138 74 232 126 587 327 1183 722 1696 1122 l175 137 101 12 c557 68 1693 581
2704 1220 892 564 1577 1166 1909 1677 72 111 169 306 200 403 111 346 146
842 96 1357 -68 694 -291 1509 -615 2239 l-61 140 76 248 c185 603 335 1170
492 1868 l20 85 17 -40 c165 -381 561 -1827 755 -2760 195 -939 277 -1645 274
-2350 -3 -506 -39 -873 -127 -1310 -19 -93 -33 -171 -31 -173 10 -11 137 605
159 778 9 63 27 192 40 285 23 158 61 568 86 940 29 413 28 1382 0 1835 -62
993 -194 1796 -430 2615 -136 471 -268 749 -496 1041 l-62 81 38 229 c207
1226 339 2558 400 4034 27 658 32 942 37 2158 3 716 7 1302 8 1302 2 0 22 -35
45 -77z m-18648 -147 c12 -18 4 -28 -37 -44 -62 -23 -232 -96 -317 -135 l-77
-36 -79 107 c-43 59 -82 113 -87 121 -6 11 39 12 291 6 205 -5 301 -11 306
-19z m-24732 -3054 c0 -3 -17 -35 -37 -71 l-37 -66 -12 65 c-7 36 -16 87 -19
114 l-7 48 56 -42 c31 -23 56 -45 56 -48z m6045 -216 c201 -55 317 -182 332
-366 21 -254 -215 -539 -503 -606 -121 -28 -211 5 -317 115 -212 221 -233 514
-49 694 l47 46 100 -234 c54 -129 101 -232 103 -230 4 4 -24 419 -34 512 l-6
51 38 21 c34 19 51 21 134 17 52 -2 122 -11 155 -20z m22262 -22 c179 -89 291
-224 315 -380 30 -193 -102 -447 -284 -545 -53 -28 -73 -34 -128 -34 -219 1
-476 204 -554 437 -78 230 22 443 244 523 76 28 162 43 240 44 70 1 81 -2 167
-45z m-23395 -618 c96 -21 170 -61 232 -126 63 -66 97 -129 128 -237 19 -66
22 -102 22 -228 -1 -129 -4 -164 -26 -246 -15 -53 -42 -131 -62 -174 -157
-340 -518 -632 -806 -652 -66 -4 -80 -2 -119 19 -91 49 -131 172 -131 408 0
479 195 983 458 1182 35 26 77 52 95 57 48 14 134 12 209 -3z m24443 -21 c109
-63 238 -225 322 -401 144 -304 218 -748 169 -1007 -33 -170 -94 -237 -217
-237 -207 0 -511 192 -700 443 -72 95 -150 252 -186 372 -24 81 -26 107 -27
255 -1 144 2 175 22 245 30 104 66 168 128 231 90 90 220 136 365 131 62 -3
85 -9 124 -32z m-21485 -369 c163 -42 380 -139 349 -156 -8 -4 -94 -40 -191
-80 l-177 -72 -83 72 c-73 63 -174 137 -210 154 -8 4 -9 8 -3 11 17 9 210 94
215 94 3 1 48 -10 100 -23z m18479 -25 l112 -48 -83 -56 c-46 -31 -113 -83
-151 -117 l-67 -62 -68 27 c-221 88 -311 128 -306 136 16 27 215 109 348 144
50 13 94 24 97 25 3 0 56 -22 118 -49z m-19995 -266 l-86 -86 -276 -119 c-151
-66 -277 -118 -279 -116 -5 5 221 145 354 219 83 47 361 187 371 187 1 0 -37
-38 -84 -85z m21541 -77 c154 -84 408 -238 402 -244 -2 -3 -130 50 -283 116
l-279 121 -85 85 -85 85 100 -46 c55 -25 158 -78 230 -117z m-19364 -15 c71
-73 129 -145 129 -160 0 -9 -508 -219 -514 -212 -2 2 -20 36 -39 74 -20 39
-51 95 -71 125 -19 30 -32 58 -28 61 12 11 426 178 442 179 9 0 45 -30 81 -67z
m17235 -14 c109 -44 209 -85 221 -90 22 -8 22 -10 -26 -86 -26 -43 -60 -102
-75 -131 -21 -41 -31 -52 -44 -47 -38 14 -497 199 -501 201 -14 11 190 234
214 234 7 0 101 -36 211 -81z m-19761 -426 c-23 -54 -55 -137 -70 -184 l-28
-86 -546 -220 c-300 -122 -547 -220 -548 -219 -1 1 13 64 32 140 24 104 38
144 56 161 19 18 1114 503 1141 505 3 0 -13 -44 -37 -97z m22507 -138 c299
-130 559 -247 579 -261 35 -24 38 -30 69 -160 18 -74 30 -138 26 -141 -3 -3
-249 92 -546 212 l-540 219 -31 95 c-18 53 -49 134 -70 180 -40 86 -42 91 -35
91 3 0 249 -106 548 -235z m-19641 100 c91 -174 120 -140 -238 -282 -170 -68
-311 -123 -316 -123 -4 0 -7 9 -7 19 0 10 -16 77 -37 147 -20 70 -32 129 -27
131 5 2 128 53 274 113 146 60 271 108 279 107 7 -1 40 -51 72 -112z m16619 4
c151 -61 276 -112 278 -114 1 -1 -13 -57 -33 -124 -19 -68 -35 -131 -35 -141
0 -10 -4 -21 -9 -24 -4 -3 -138 47 -297 110 -159 64 -299 120 -312 125 -22 9
-22 9 34 121 59 118 83 158 92 158 4 0 130 -50 282 -111z m-16434 -479 c17
-62 24 -104 18 -109 -5 -5 -164 -77 -354 -159 l-345 -149 -6 36 c-4 20 -8 77
-10 126 l-4 90 325 132 c179 72 330 132 336 132 6 1 24 -44 40 -99z m16261
-31 c181 -72 330 -134 333 -137 3 -4 1 -62 -5 -129 l-10 -121 -275 119 c-151
65 -312 135 -356 155 l-82 36 10 36 c23 88 49 172 53 172 3 0 152 -59 332
-131z m-19484 -101 c-7 -57 -12 -131 -13 -165 0 -36 -5 -65 -12 -69 -6 -4
-259 -107 -562 -230 -386 -156 -552 -219 -554 -210 -4 20 47 319 57 329 7 7
1077 444 1092 446 3 1 -1 -45 -8 -101z m22889 -123 c295 -120 539 -223 542
-230 8 -22 58 -326 54 -331 -2 -2 -257 99 -566 224 l-562 227 0 45 c0 46 -15
198 -26 259 -4 25 -2 32 8 28 7 -2 255 -103 550 -222z m-33042 -395 c355 -910
388 -991 710 -1725 298 -679 934 -1901 1405 -2700 423 -718 1067 -1655 1557
-2268 l95 -118 17 -143 c58 -497 181 -1106 337 -1676 325 -1179 878 -2491
1539 -3645 54 -93 108 -188 120 -210 22 -38 21 -38 -27 15 -509 558 -1144
1383 -1678 2179 -1967 2937 -3380 6438 -4150 10282 -41 207 -75 380 -74 385 0
5 14 -27 31 -71 17 -44 70 -181 118 -305z m13460 305 c0 -3 7 -50 15 -105 117
-776 31 -1795 -244 -2907 -101 -407 -258 -910 -388 -1248 l-58 -150 -310 -3
c-623 -6 -1920 20 -2641 53 -176 8 -326 15 -333 15 -23 0 -149 297 -243 570
-172 505 -283 1054 -328 1634 -5 71 -10 141 -10 156 0 27 19 36 754 354 414
179 757 326 762 326 5 0 36 -42 69 -92 69 -105 239 -283 335 -350 69 -49 173
-104 256 -137 131 -51 350 -66 501 -35 533 110 968 711 1067 1473 8 62 16 115
18 116 5 6 762 334 771 334 4 1 7 -1 7 -4z m16128 -164 l380 -164 12 -96 c43
-351 164 -690 341 -957 96 -144 277 -326 403 -403 171 -106 326 -151 515 -151
247 0 458 86 674 274 72 62 187 198 247 289 23 37 47 67 52 67 9 0 1509 -648
1516 -655 5 -5 -18 -292 -39 -475 -53 -459 -154 -910 -304 -1348 -89 -262
-215 -562 -237 -562 -6 0 -156 -7 -332 -15 -712 -33 -2024 -59 -2641 -53
l-310 3 -48 119 c-162 406 -370 1108 -481 1626 -204 951 -262 1773 -176 2463
22 176 29 209 40 205 5 -2 179 -77 388 -167z m-19439 -218 c6 -60 14 -127 17
-149 l6 -41 -617 -247 c-340 -136 -619 -245 -620 -244 -3 4 24 278 30 303 3
16 117 66 577 252 315 128 578 232 584 233 6 0 16 -44 23 -107z m22961 -128
c311 -125 566 -229 568 -230 6 -5 33 -270 30 -297 l-3 -26 -615 245 c-338 136
-616 247 -616 247 -1 1 4 42 12 91 7 50 16 116 19 148 6 48 10 58 23 55 10 -3
271 -107 582 -233z m616 -809 c1 -1 5 -88 9 -193 5 -127 4 -193 -3 -193 -5 0
-317 133 -693 296 -376 163 -694 300 -705 304 -22 9 -21 9 17 105 21 53 46
121 54 150 l16 53 652 -261 c359 -143 653 -261 653 -261z m-23471 432 c15 -46
38 -109 52 -142 13 -32 21 -62 16 -67 -9 -8 -1366 -598 -1397 -607 -18 -5 -19
2 -14 187 3 106 7 194 9 196 8 7 1284 515 1295 515 7 0 24 -37 39 -82z m36105
-4363 c136 -585 204 -1210 204 -1880 0 -744 -67 -1086 -279 -1410 -292 -448
-988 -1066 -1870 -1661 -301 -203 -735 -473 -1040 -647 -156 -89 -576 -306
-700 -362 l-80 -36 220 214 c635 618 1159 1262 1607 1977 139 221 298 491 350
593 l29 58 72 -63 c40 -35 181 -170 314 -302 l242 -239 -25 84 c-69 225 -213
538 -347 751 -37 58 -67 109 -67 112 0 3 72 150 159 328 418 849 756 1652
1053 2498 43 124 81 232 84 240 8 18 20 -25 74 -255z m-4676 -2295 c-7 -7 -6
-32 4 -80 l15 -69 -133 -223 c-258 -431 -717 -1154 -727 -1145 -3 4 236 1209
241 1213 0 1 100 51 221 112 121 61 254 131 295 156 73 43 105 57 84 36z
m-37914 -6662 c385 -1239 791 -2258 1192 -2992 216 -395 225 -410 308 -522
544 -733 2063 -1896 4560 -3490 l285 -182 42 -334 c171 -1339 382 -3341 517
-4888 132 -1502 256 -3334 288 -4244 l3 -80 -175 -23 c-447 -59 -745 -131
-945 -229 -193 -93 -419 -293 -585 -517 l-58 -78 -115 208 c-2000 3622 -3758
8239 -5081 13343 -216 834 -453 1822 -626 2615 -76 350 -235 1115 -242 1165
-3 22 8 31 112 85 118 63 312 183 410 254 30 22 58 41 62 41 4 0 25 -60 48
-132z m36045 -243 c159 -76 303 -132 456 -179 122 -37 357 -86 412 -86 17 0
50 -3 71 -7 l39 -6 -7 -256 c-85 -3179 -392 -6753 -857 -9961 -633 -4372
-1587 -8417 -2769 -11750 -62 -173 -117 -330 -123 -347 -6 -18 -15 -33 -21
-33 -23 0 -761 360 -764 373 -1 7 25 166 58 352 313 1749 758 4452 920 5580
234 1638 363 3286 422 5395 15 549 15 2384 0 2970 -36 1359 -92 2525 -176
3678 l-24 324 185 181 c337 330 455 485 682 897 176 318 229 425 416 835 160
350 184 408 340 815 203 529 254 674 445 1272 l31 97 67 -41 c37 -23 126 -69
197 -103z m-4652 88 c-7 -2 -19 -2 -25 0 -7 3 -2 5 12 5 14 0 19 -2 13 -5z
m-113 -19 c-41 -7 -88 -12 -105 -12 -37 1 108 25 150 25 17 0 -4 -5 -45 -13z
m21330 -2664 c452 -2920 752 -5743 895 -8410 41 -770 62 -1413 77 -2355 11
-718 10 -830 -10 -1650 -25 -989 -60 -1704 -112 -2280 -11 -121 -31 -348 -45
-505 -27 -307 -56 -563 -111 -980 -39 -296 -112 -791 -118 -797 -2 -3 -91 107
-198 243 -289 369 -289 368 -9 -19 l202 -278 -41 -237 c-68 -391 -213 -1093
-305 -1471 -6 -24 -7 -24 -24 -5 -10 10 -191 246 -402 524 -211 278 -520 683
-688 900 -168 217 -305 402 -305 410 1 8 40 161 87 340 259 974 504 2124 687
3229 538 3250 718 6875 535 10781 -48 1008 -150 2453 -225 3165 -5 50 -9 99
-9 110 2 28 28 -127 119 -715z m-19147 -1637 c16 -193 59 -868 82 -1273 218
-3911 119 -7548 -286 -10530 -116 -853 -500 -3228 -794 -4915 -176 -1009 -211
-1200 -221 -1198 -5 1 -97 44 -206 96 l-196 95 -65 198 c-198 602 -445 1406
-607 1974 -151 531 -235 876 -315 1303 -115 613 -412 1109 -868 1450 -236 177
-514 302 -727 327 -41 4 -195 14 -341 21 l-266 13 -6 115 c-18 317 -29 1270
-23 1961 14 1769 122 3907 349 6910 l32 424 105 67 c58 37 254 161 435 276
910 578 1781 1161 2460 1646 479 343 1134 846 1360 1045 44 39 83 71 86 71 3
1 9 -34 12 -76z m14677 -2793 c494 -3437 666 -6626 515 -9535 -108 -2070 -376
-3971 -807 -5723 -34 -138 -65 -252 -68 -252 -3 0 -25 39 -48 86 -24 48 -45
84 -48 82 -2 -3 17 -49 43 -104 l47 -99 -28 -110 c-43 -168 -177 -635 -250
-870 -58 -186 -231 -710 -251 -758 -6 -14 -46 57 -165 290 -610 1197 -864
1691 -1281 2491 l-179 342 69 218 c941 2949 1642 6408 2015 9957 149 1410 262
2984 306 4255 6 173 14 344 17 380 l6 65 19 -115 c10 -63 49 -333 88 -600z
m-39271 -1459 c157 -92 384 -226 504 -296 120 -70 215 -130 212 -134 -8 -8
-2029 -698 -2034 -695 -4 3 158 309 307 579 173 313 304 536 322 547 21 13
381 166 394 167 5 1 138 -75 295 -168z m1329 -779 c185 -109 459 -267 607
-352 297 -169 280 -158 274 -164 -7 -7 -3810 -1128 -3814 -1124 -1 1 -9 154
-17 338 l-15 335 80 160 80 161 1231 421 c677 231 1232 421 1234 422 2 1 155
-88 340 -197z m16562 -622 c253 -12 437 -32 610 -65 197 -39 401 -109 481
-166 27 -19 29 -25 29 -82 l0 -62 -3013 -927 c-2892 -891 -13609 -4191 -13645
-4202 -15 -5 -36 52 -160 433 -78 241 -142 443 -142 447 0 5 1423 461 3161
1013 l3162 1004 156 -17 c310 -33 406 -38 581 -31 569 21 1315 160 1980 370
349 110 796 280 1110 422 381 173 1455 730 2175 1129 l150 83 931 295 932 296
233 19 c525 45 916 57 1269 41z m-15149 -188 c134 -76 349 -196 476 -268 128
-71 233 -131 233 -134 0 -3 -1122 -329 -2493 -724 -1370 -396 -2497 -721
-2503 -723 -8 -3 -14 30 -18 109 -12 202 -32 663 -30 666 1 2 921 275 2045
607 1124 332 2044 604 2045 604 1 1 111 -61 245 -137z m16294 -808 l7 -239
-344 -109 c-188 -59 -3862 -1226 -8163 -2593 -5896 -1873 -7829 -2483 -7859
-2481 l-38 3 -64 180 c-98 274 -167 496 -158 505 8 7 3637 1126 15114 4659
l1485 457 6 -71 c4 -40 10 -180 14 -311z m-14934 53 c195 -106 430 -233 522
-282 128 -68 164 -91 150 -97 -49 -20 -6277 -1668 -6288 -1664 -9 3 -14 84
-21 303 -4 164 -8 322 -9 352 l0 55 2635 762 c1449 419 2640 763 2646 763 6 1
170 -86 365 -192z m14965 -916 c9 -217 13 -386 8 -391 -5 -4 -144 -45 -309
-90 -584 -160 -1785 -513 -2682 -789 -1246 -384 -1790 -560 -2728 -886 -1915
-664 -2820 -955 -4500 -1445 -955 -279 -1447 -426 -2436 -731 l-746 -229
-1081 3 c-594 1 -1075 5 -1069 8 7 4 2145 685 4752 1513 2607 828 6097 1937
7755 2464 1658 527 3016 958 3018 957 1 -1 9 -174 18 -384z m-13824 308 c168
-91 640 -327 733 -367 83 -36 513 -213 570 -235 l40 -15 -30 -8 c-16 -4 -1112
-301 -2435 -660 -1323 -358 -2406 -651 -2408 -650 -7 7 -215 787 -242 909 -14
59 -16 62 -39 48 -10 -7 -12 -21 -7 -57 7 -51 171 -874 181 -909 6 -20 -79
-44 -1532 -438 -847 -229 -1544 -417 -1550 -417 -7 0 -13 97 -18 298 -3 163
-10 412 -15 552 -5 140 -5 259 -1 263 10 10 6567 1755 6598 1756 12 1 81 -31
155 -70z m1789 -765 c82 -29 564 -153 674 -174 61 -11 123 -24 138 -28 22 -6
-579 -200 -2910 -940 -1616 -513 -2943 -932 -2948 -932 -13 0 -210 668 -200
678 6 7 5169 1410 5191 1411 6 1 31 -6 55 -15z m12079 -496 c14 -282 25 -551
25 -598 l0 -85 -385 -116 c-212 -64 -2421 -734 -4910 -1488 l-4525 -1371 -525
10 c-815 15 -1869 30 -2139 30 -138 0 -241 4 -235 9 5 4 322 112 704 238 382
127 940 315 1240 418 2156 741 2996 1009 4822 1539 853 248 948 276 1468 438
1133 351 3189 1040 4140 1386 151 55 280 101 285 101 7 1 19 -179 35 -511z
m50 -950 c0 -18 11 -202 25 -408 13 -206 22 -376 20 -378 -1 -2 -12 29 -24 68
-21 70 -23 72 -49 65 -15 -3 -1625 -481 -3577 -1060 l-3550 -1054 -560 14
c-308 8 -731 17 -940 21 -209 4 -387 10 -396 13 -13 5 9006 2747 9044 2750 4
1 7 -14 7 -31z m-17495 0 c106 -464 155 -682 152 -684 -7 -7 -3281 -1044
-3284 -1040 -7 7 -19 880 -13 888 4 5 3094 851 3132 857 4 0 10 -9 13 -21z
m17549 -890 c8 -39 59 -868 54 -873 -2 -3 -202 -57 -444 -120 -415 -110 -1587
-433 -1924 -531 -85 -25 -461 -136 -835 -246 l-680 -201 -410 12 c-225 6 -788
23 -1250 36 -462 14 -867 25 -900 26 -33 0 -53 3 -45 7 16 7 6410 1909 6422
1911 4 1 10 -9 12 -21z m-17222 -470 c64 -249 116 -454 114 -456 -2 -1 -710
-220 -1573 -486 l-1569 -483 -199 -17 c-110 -10 -208 -20 -217 -22 -17 -5 -18
20 -18 423 l0 429 1668 531 c917 292 1669 531 1672 532 3 0 58 -203 122 -451z
m17313 -800 c25 -335 28 -428 11 -350 -4 17 -10 32 -13 32 -2 0 -333 -106
-734 -235 l-730 -235 -677 25 c-372 13 -786 27 -920 31 -134 4 -239 10 -235
14 4 4 184 62 398 130 476 149 2030 665 2510 834 193 67 353 120 356 117 4 -3
19 -167 34 -363z m-17065 -129 c38 -134 78 -272 89 -307 14 -46 16 -64 8 -67
-7 -2 -217 -6 -467 -9 -567 -8 -1411 -31 -1820 -51 -58 -3 -100 -3 -95 0 18 9
2210 683 2213 681 1 -2 33 -113 72 -247z m17114 -516 c4 -54 9 -122 13 -150
l5 -53 -33 0 c-19 0 -180 7 -359 15 -179 8 -354 15 -389 15 -35 0 -61 3 -57 7
7 8 782 260 802 262 8 1 14 -34 18 -96z m17514 -5148 c405 -1081 676 -1794
1087 -2853 l187 -483 -67 -167 c-291 -720 -637 -1434 -1003 -2067 -89 -154
-234 -398 -246 -412 -1 -1 -132 27 -291 63 -341 76 -1072 223 -1265 255 l-135
22 -362 235 c-200 128 -365 237 -368 242 -3 5 40 94 95 197 126 234 479 937
601 1195 568 1203 1047 2399 1520 3797 78 230 115 328 120 315 4 -11 61 -163
127 -339z m3395 -3831 c134 -273 1537 -3202 1537 -3207 0 -4 -37 -7 -83 -7
-46 0 -186 -7 -313 -15 l-229 -16 -367 98 -367 97 -476 963 c-263 530 -475
969 -472 977 3 7 59 98 124 202 146 231 367 600 498 832 54 95 99 171 101 169
2 -2 23 -43 47 -93z m-1030 -2286 c108 -271 195 -494 193 -495 -6 -6 -946 231
-946 238 0 4 96 135 213 291 116 156 239 323 272 371 33 47 63 86 66 87 3 0
94 -221 202 -492z"/>
<path d="M14055 53865 c-399 -18 -731 -62 -1050 -140 -171 -41 -216 -58 -135
-50 396 38 863 45 1372 21 168 -9 317 -18 330 -21 12 -3 192 -23 399 -45 233
-24 446 -53 560 -75 101 -19 288 -53 414 -75 381 -67 425 -77 835 -185 217
-57 474 -122 570 -146 97 -23 316 -90 493 -150 403 -138 987 -322 994 -315 4
3 -376 189 -598 292 -564 263 -737 328 -1434 538 -436 131 -465 137 -1155 257
-246 43 -333 53 -630 74 -456 33 -608 36 -965 20z"/>
<path d="M24876 39298 c-3 -29 -8 -141 -11 -248 -17 -575 -66 -1235 -115
-1564 -11 -71 -19 -131 -17 -133 6 -5 206 566 305 867 156 477 256 866 269
1048 l6 82 -216 0 -216 0 -5 -52z"/>
<path d="M23955 35699 c-807 -29 -1400 -160 -1925 -425 -332 -167 -569 -355
-743 -589 -161 -216 -352 -602 -527 -1060 -378 -989 -593 -2022 -593 -2850 0
-693 154 -1197 458 -1500 194 -194 642 -443 1050 -584 430 -149 850 -228 1470
-276 110 -9 292 -29 405 -45 602 -87 1127 -102 1685 -50 61 6 304 12 540 14
330 2 461 7 565 20 210 27 403 61 558 101 785 197 1518 524 1797 800 230 228
371 568 440 1065 23 158 31 649 16 862 -72 967 -409 2205 -831 3048 -90 179
-184 341 -259 445 -66 90 -263 290 -366 369 -394 305 -930 491 -1685 585 -293
37 -801 72 -984 70 -89 -2 -88 -2 39 -10 261 -16 516 -57 790 -125 485 -122
987 -351 1339 -613 l97 -72 -20 -28 c-34 -47 -173 -173 -252 -227 -307 -212
-719 -336 -1284 -385 -180 -16 -729 -16 -955 0 -383 26 -700 62 -1335 151
-192 27 -411 56 -485 65 -289 36 -542 128 -771 281 -96 65 -219 163 -219 175
0 18 184 130 335 204 365 181 944 374 1420 474 305 64 576 97 910 110 193 8
189 8 -135 8 -184 0 -429 -4 -545 -8z m1215 -5024 c1104 -79 2036 -250 2530
-464 232 -101 392 -228 444 -353 40 -95 87 -338 101 -530 l7 -86 -128 -77
c-560 -333 -1378 -599 -2219 -720 -402 -58 -801 -82 -1102 -66 -103 5 -264 7
-358 3 -1120 -46 -2579 316 -3396 843 l-66 43 4 58 c14 195 82 459 145 557
197 307 1013 566 2277 722 337 41 851 85 1161 98 77 3 335 -9 600 -28z"/>
<path d="M51891 41204 c0 -11 3 -14 6 -6 3 7 2 16 -1 19 -3 4 -6 -2 -5 -13z"/>
<path d="M50621 37514 c0 -11 3 -14 6 -6 3 7 2 16 -1 19 -3 4 -6 -2 -5 -13z"/>
<path d="M50512 37143 c-15 -48 -8 -55 8 -8 7 20 10 38 8 41 -3 2 -10 -13 -16
-33z"/>
<path d="M50456 36995 c-9 -26 -7 -32 5 -12 6 10 9 21 6 23 -2 3 -7 -2 -11
-11z"/>
<path d="M50436 36945 c-9 -26 -7 -32 5 -12 6 10 9 21 6 23 -2 3 -7 -2 -11
-11z"/>
<path d="M15612 44887 c-220 -672 -505 -1204 -799 -1489 -132 -129 -332 -256
-478 -306 -224 -76 -489 -89 -711 -34 l-72 17 19 60 c65 206 109 489 116 745
4 172 3 207 -16 295 -35 173 -126 321 -227 373 l-38 19 -86 -23 c-213 -57
-417 -169 -628 -347 -45 -38 -85 -68 -87 -65 -8 7 -135 395 -136 414 -1 11 -5
-1 -11 -26 -11 -53 -2 -243 18 -389 8 -58 14 -112 14 -121 0 -8 -22 -45 -49
-80 -74 -99 -137 -215 -173 -320 -33 -95 -33 -96 -32 -280 1 -198 11 -261 68
-400 56 -139 165 -271 278 -338 185 -109 438 -129 603 -48 68 34 164 120 206
186 l16 25 84 -27 c130 -42 156 -47 305 -63 356 -37 695 47 984 246 115 79
197 152 295 265 362 412 591 1064 612 1737 3 108 4 197 2 197 -2 0 -37 -101
-77 -223z m-2209 -638 c56 -112 69 -276 42 -537 -53 -505 -209 -902 -380 -968
-61 -23 -217 -15 -293 14 -196 76 -312 297 -312 593 0 243 180 523 480 746
121 90 374 217 420 210 8 -1 28 -27 43 -58z"/>
<path d="M32477 45064 c-9 -54 10 -351 32 -499 117 -792 468 -1416 962 -1709
105 -63 266 -128 394 -160 253 -63 589 -48 834 39 59 20 64 20 85 -16 26 -43
119 -133 169 -162 104 -61 294 -79 442 -42 226 56 401 221 483 456 70 200 81
450 27 619 -34 109 -102 238 -176 337 -32 43 -57 85 -54 93 16 52 35 274 34
398 l-1 147 -29 -95 c-41 -131 -109 -323 -120 -334 -4 -5 -36 17 -72 50 -183
167 -421 300 -653 363 l-72 19 -51 -29 c-98 -56 -180 -193 -217 -364 -43 -201
-8 -617 81 -964 19 -74 34 -135 32 -136 -1 -1 -33 -10 -71 -19 -174 -43 -420
-41 -600 5 -574 145 -1015 728 -1381 1821 -64 192 -73 214 -78 182z m2418
-787 c218 -79 481 -277 631 -476 75 -99 147 -240 165 -323 15 -72 7 -282 -15
-363 -44 -160 -135 -285 -247 -337 -110 -53 -265 -61 -348 -18 -190 96 -363
653 -365 1175 0 175 14 252 60 332 26 46 23 45 119 10z"/>
<path d="M43466 79688 c-10 -62 -207 -2192 -204 -2207 2 -8 52 441 112 999 59
558 114 1066 120 1128 12 105 11 112 -5 112 -13 0 -20 -10 -23 -32z"/>
<path d="M47336 79693 c-3 -16 -91 -512 -195 -1103 -105 -591 -229 -1293 -276
-1559 -47 -266 -84 -488 -82 -494 1 -5 15 49 31 119 15 71 61 280 101 464 307
1397 565 2578 565 2588 0 8 -23 12 -69 12 -68 0 -70 -1 -75 -27z"/>
<path d="M48497 78793 c-114 -511 -266 -1189 -337 -1508 -72 -319 -129 -583
-127 -588 2 -7 718 3001 717 3016 0 4 -10 7 -23 7 -22 0 -29 -28 -230 -927z"/>
<path d="M53172 79233 c-323 -983 -1343 -4125 -1340 -4128 2 -2 154 402 337
898 184 496 374 1008 422 1137 351 942 949 2565 949 2575 0 3 -47 5 -104 5
l-104 0 -160 -487z"/>
<path d="M54543 78967 c-155 -413 -545 -1454 -867 -2311 -322 -858 -585 -1561
-583 -1563 2 -1 117 286 255 640 138 353 515 1317 837 2142 703 1795 715 1827
715 1837 0 4 -17 8 -37 8 l-38 0 -282 -753z"/>
<path d="M56476 79711 c-8 -12 -211 -504 -766 -1856 -257 -627 -799 -1945
-1203 -2930 -817 -1989 -2029 -4967 -2023 -4972 1 -2 266 581 586 1294 321
714 629 1397 683 1518 96 214 393 879 1404 3150 449 1007 1551 3486 1651 3713
l41 92 -184 0 c-101 0 -186 -4 -189 -9z"/>
<path d="M58207 79713 c-3 -5 -240 -537 -527 -1183 -660 -1487 -1058 -2396
-1915 -4375 -62 -143 -160 -369 -219 -503 -239 -549 -989 -2311 -1572 -3694
-315 -747 -1077 -2599 -1071 -2604 9 -9 1281 2285 1999 3606 802 1474 941
1731 1346 2490 113 212 376 705 584 1095 209 391 402 751 428 800 290 545 412
775 615 1160 131 248 264 502 298 565 33 63 74 142 92 175 39 72 53 98 588
1125 234 448 488 935 565 1083 l140 267 -674 0 c-370 0 -675 -3 -677 -7z"/>
<path d="M61808 78942 c-235 -427 -722 -1315 -1083 -1972 -526 -956 -2533
-4637 -2585 -4740 -7 -14 -8 -20 -2 -15 13 13 1967 3281 2482 4150 221 374
415 700 430 725 15 25 86 144 157 265 72 121 246 416 388 655 142 239 424 716
628 1060 203 344 374 631 379 638 8 9 -29 12 -178 12 l-189 -1 -427 -777z"/>
<path d="M64019 79668 c-36 -60 -1010 -1670 -3204 -5303 -824 -1364 -1505
-2491 -1513 -2505 -9 -14 -11 -20 -5 -15 9 8 4816 7725 4886 7843 l19 32 -75
0 -75 0 -33 -52z"/>
<path d="M65884 79468 c-1657 -2526 -2233 -3410 -3244 -4973 -1982 -3064
-3006 -4651 -3868 -5995 -1082 -1687 -1020 -1589 -1005 -1575 18 18 2017 2902
2928 4225 483 701 1172 1700 1530 2220 1295 1878 1978 2874 2790 4070 252 371
703 1034 1002 1473 299 439 543 800 543 802 0 3 -115 5 -255 5 l-256 0 -165
-252z"/>
<path d="M71910 79252 c-206 -256 -514 -640 -684 -852 -1416 -1763 -2640
-3297 -3316 -4155 -442 -561 -964 -1222 -1160 -1470 -795 -1005 -1617 -2058
-2666 -3415 -254 -327 -577 -746 -720 -930 -1078 -1390 -3413 -4477 -3968
-5245 l-58 -80 94 95 c80 83 219 227 578 605 42 44 164 172 270 285 106 113
234 248 285 300 126 131 827 878 1051 1120 28 30 145 156 260 280 498 535
1152 1239 1434 1545 167 182 325 353 351 380 26 28 266 291 535 585 268 294
506 555 529 580 389 420 1717 1882 2386 2625 1899 2113 3116 3472 3344 3734
22 26 211 240 420 476 209 236 418 472 465 525 47 53 132 151 190 216 207 234
1924 2179 2393 2711 262 298 477 545 477 548 0 3 -476 5 -1057 5 l-1058 0
-375 -468z"/>
<path d="M77850 79558 c-85 -90 -229 -242 -320 -338 -92 -96 -339 -357 -550
-580 -211 -223 -420 -443 -465 -490 -45 -47 -212 -222 -371 -390 -159 -168
-457 -483 -664 -700 -206 -217 -499 -525 -650 -685 -151 -159 -347 -366 -435
-460 -89 -93 -312 -330 -495 -525 -184 -195 -363 -386 -399 -424 -36 -38 -73
-76 -81 -85 -103 -111 -187 -200 -301 -321 -75 -80 -277 -296 -449 -480 -172
-184 -350 -373 -394 -420 -45 -47 -138 -146 -207 -220 -246 -264 -894 -956
-949 -1015 -31 -33 -196 -208 -365 -390 -170 -181 -338 -361 -374 -400 -74
-78 -183 -194 -287 -305 -39 -41 -142 -151 -229 -245 -88 -93 -187 -199 -221
-235 -214 -227 -1364 -1457 -1859 -1990 -324 -349 -614 -662 -646 -695 -31
-33 -265 -285 -520 -560 -255 -275 -486 -525 -515 -555 -28 -30 -145 -156
-259 -280 -115 -124 -211 -227 -214 -230 -3 -3 -31 -32 -61 -65 -310 -333
8687 8649 10091 10075 712 724 2004 2033 2625 2660 209 212 407 413 439 448
l58 62 -389 0 -390 0 -154 -162z"/>
<path d="M17805 79640 c-226 -9 -437 -20 -470 -24 -261 -31 -983 -142 -1085
-167 -192 -48 -909 -237 -965 -256 -27 -8 -292 -107 -588 -219 l-539 -204
-576 -289 c-317 -159 -604 -304 -637 -323 -53 -31 -765 -478 -1110 -698 -107
-68 -1325 -989 -1390 -1051 -18 -18 -18 -20 -3 -35 15 -16 29 -10 195 82 98
54 405 235 683 402 390 235 595 351 900 509 217 113 483 253 590 311 107 58
227 122 265 143 39 21 201 94 360 162 368 158 416 180 665 294 156 72 289 123
555 213 193 65 443 152 556 193 170 63 280 94 620 177 228 56 464 114 524 130
61 16 187 40 280 55 94 15 293 46 442 71 205 33 331 48 509 59 130 8 284 19
343 25 296 27 431 31 796 20 418 -12 971 -56 1200 -96 77 -13 238 -40 358 -59
328 -53 1030 -230 1357 -343 216 -75 686 -265 812 -328 55 -28 73 -33 84 -23
8 6 14 17 14 23 0 30 -362 247 -685 411 -496 250 -1029 446 -1626 595 -196 49
-419 98 -495 110 -77 11 -236 36 -354 55 -118 19 -276 39 -350 45 -183 14
-786 50 -808 49 -9 -1 -202 -10 -427 -19z"/>
<path d="M28870 78779 c-344 -16 -1051 -100 -1460 -173 -298 -54 -520 -98
-654 -132 -751 -188 -1409 -392 -1912 -593 -703 -279 -1257 -542 -1714 -813
-119 -71 -135 -82 -127 -95 4 -7 78 21 194 74 509 231 1231 508 1853 711 1228
401 2462 677 3570 797 795 86 1496 98 2190 35 184 -16 338 -30 343 -30 4 0 7
7 7 15 0 8 -2 15 -4 15 -2 0 -48 9 -102 20 -423 88 -776 136 -1149 159 -217
14 -834 19 -1035 10z"/>
<path d="M79525 78522 c-104 -104 -397 -391 -650 -638 -1123 -1095 -1293
-1262 -1515 -1479 -129 -126 -374 -367 -545 -535 -170 -168 -443 -435 -605
-595 -162 -159 -423 -416 -580 -570 -157 -155 -564 -555 -905 -890 -341 -335
-751 -737 -910 -894 -160 -158 -558 -549 -885 -871 -327 -321 -737 -724 -910
-895 -173 -170 -448 -440 -610 -600 -162 -159 -423 -416 -580 -570 -157 -155
-697 -685 -1200 -1180 -503 -494 -1050 -1032 -1215 -1194 -165 -163 -543 -535
-840 -827 -297 -292 -652 -643 -790 -778 -137 -136 13 3 335 310 322 306 632
603 690 659 58 56 220 211 360 345 140 134 300 287 355 340 55 53 318 304 585
559 267 255 530 507 585 561 87 84 587 563 1285 1229 118 113 269 258 335 322
101 97 409 392 955 913 58 55 155 148 215 206 61 58 380 364 710 680 330 315
647 619 705 675 58 56 269 258 470 450 201 192 464 444 585 560 121 116 486
465 810 775 325 310 640 611 700 670 61 58 220 211 355 340 259 247 279 266
735 705 160 154 398 384 530 510 132 127 312 300 400 385 285 276 445 431 700
675 137 132 314 303 393 380 l143 140 -3 157 -3 158 -190 -188z"/>
<path d="M43253 77410 c0 -25 2 -35 4 -22 2 12 2 32 0 45 -2 12 -4 2 -4 -23z"/>
<path d="M43242 77310 c0 -19 2 -27 5 -17 2 9 2 25 0 35 -3 9 -5 1 -5 -18z"/>
<path d="M43232 77210 c0 -14 2 -19 5 -12 2 6 2 18 0 25 -3 6 -5 1 -5 -13z"/>
<path d="M48021 76664 c0 -11 3 -14 6 -6 3 7 2 16 -1 19 -3 4 -6 -2 -5 -13z"/>
<path d="M48012 76620 c0 -14 2 -19 5 -12 2 6 2 18 0 25 -3 6 -5 1 -5 -13z"/>
<path d="M48001 76574 c0 -11 3 -14 6 -6 3 7 2 16 -1 19 -3 4 -6 -2 -5 -13z"/>
<path d="M47991 76534 c0 -11 3 -14 6 -6 3 7 2 16 -1 19 -3 4 -6 -2 -5 -13z"/>
<path d="M46772 76500 c0 -14 2 -19 5 -12 2 6 2 18 0 25 -3 6 -5 1 -5 -13z"/>
<path d="M46761 76444 c0 -11 3 -14 6 -6 3 7 2 16 -1 19 -3 4 -6 -2 -5 -13z"/>
<path d="M78694 75069 c-561 -513 -1086 -993 -1168 -1068 -82 -75 -156 -143
-165 -152 -9 -8 -488 -447 -1066 -974 -577 -527 -1104 -1009 -1170 -1069 -67
-61 -168 -154 -225 -206 -134 -121 -224 -204 -230 -210 -3 -3 -88 -82 -190
-174 -102 -93 -207 -190 -235 -215 -27 -26 -104 -96 -170 -156 -1506 -1375
-2795 -2558 -3540 -3250 -66 -61 -399 -369 -740 -685 -341 -315 -642 -594
-670 -619 -90 -84 -338 -314 -460 -426 -66 -60 -156 -144 -200 -185 -92 -85
-110 -102 -405 -375 -118 -109 -240 -221 -270 -250 -30 -28 -327 -303 -660
-610 -836 -773 -3094 -2876 -3155 -2939 -47 -47 -47 -48 -5 -10 34 31 1219
1056 1496 1294 396 340 2755 2393 3999 3480 149 130 464 404 700 610 914 795
1869 1631 2715 2375 161 141 1732 1528 1825 1610 39 34 210 185 380 335 171
150 326 287 345 304 19 17 496 438 1060 935 564 497 1057 932 1095 966 68 60
1141 1006 1439 1269 82 72 215 190 296 261 81 72 204 180 273 240 l126 110 1
358 c0 196 -2 357 -4 357 -2 0 -462 -419 -1022 -931z"/>
<path d="M53076 75065 c-9 -26 -7 -32 5 -12 6 10 9 21 6 23 -2 3 -7 -2 -11
-11z"/>
<path d="M53046 74985 c-9 -26 -7 -32 5 -12 6 10 9 21 6 23 -2 3 -7 -2 -11
-11z"/>
<path d="M19622 73830 c0 -14 2 -19 5 -12 2 6 2 18 0 25 -3 6 -5 1 -5 -13z"/>
<path d="M58105 72170 c-9 -16 -13 -30 -11 -30 3 0 12 14 21 30 9 17 13 30 11
30 -3 0 -12 -13 -21 -30z"/>
<path d="M59270 71810 c-6 -11 -8 -20 -6 -20 3 0 10 9 16 20 6 11 8 20 6 20
-3 0 -10 -9 -16 -20z"/>
<path d="M24081 71504 c0 -11 3 -14 6 -6 3 7 2 16 -1 19 -3 4 -6 -2 -5 -13z"/>
<path d="M23732 70380 c0 -14 2 -19 5 -12 2 6 2 18 0 25 -3 6 -5 1 -5 -13z"/>
<path d="M23742 70305 c0 -16 2 -22 5 -12 2 9 2 23 0 30 -3 6 -5 -1 -5 -18z"/>
<path d="M23752 70230 c0 -19 2 -27 5 -17 2 9 2 25 0 35 -3 9 -5 1 -5 -18z"/>
<path d="M52466 69925 c-9 -26 -7 -32 5 -12 6 10 9 21 6 23 -2 3 -7 -2 -11
-11z"/>
<path d="M52436 69855 c-9 -26 -7 -32 5 -12 6 10 9 21 6 23 -2 3 -7 -2 -11
-11z"/>
<path d="M78435 66936 c-705 -507 -1841 -1330 -2525 -1830 -685 -500 -1436
-1049 -1670 -1220 -1550 -1131 -4334 -3204 -5940 -4422 -355 -269 -737 -559
-850 -644 -491 -370 -2507 -1925 -2545 -1963 -5 -6 6 -1 25 10 280 165 1310
781 1975 1181 187 113 549 333 805 490 256 157 598 366 760 465 696 424 1709
1050 2575 1590 2096 1308 2814 1758 3770 2367 308 196 1138 725 1845 1175
1181 751 3018 1933 3048 1959 9 9 12 195 10 887 l-3 876 -1280 -921z"/>
<path d="M77455 61867 c-1243 -755 -2465 -1498 -2715 -1652 -497 -304 -714
-437 -2015 -1234 -478 -294 -874 -538 -880 -543 -14 -15 5 -4 335 180 336 188
2093 1168 2670 1489 750 418 4845 2726 4858 2737 9 9 12 59 10 204 l-3 191
-2260 -1372z"/>
<path d="M79385 61246 c-388 -215 -1014 -561 -4275 -2361 -1334 -736 -2429
-1342 -2435 -1348 -13 -12 -6 -9 305 158 146 78 625 335 1065 570 440 235 895
478 1010 540 116 62 473 253 795 425 322 172 612 327 645 345 33 18 420 225
860 460 440 235 895 478 1010 540 116 62 440 235 720 385 281 150 538 288 573
307 l62 34 0 64 c0 36 -1 65 -2 65 -2 -1 -151 -83 -333 -184z"/>
<path d="M79565 59518 c-196 -98 -1788 -909 -2030 -1033 -357 -184 -1276 -655
-3267 -1675 -2012 -1032 -5275 -2716 -5293 -2732 -13 -12 -6 -9 1140 532 528
249 992 467 1030 485 39 18 162 76 275 130 113 53 318 150 455 215 474 223
6111 2908 6865 3270 415 200 806 387 868 416 l112 54 0 205 c0 113 -3 205 -7
204 -5 0 -71 -32 -148 -71z"/>
<path d="M71804 58414 c-18 -14 -18 -15 4 -4 12 6 22 13 22 15 0 8 -5 6 -26
-11z"/>
<path d="M72574 57484 c-18 -14 -18 -15 4 -4 12 6 22 13 22 15 0 8 -5 6 -26
-11z"/>
<path d="M79560 52592 c-1240 -434 -1717 -604 -4350 -1549 -613 -220 -1398
-506 -2160 -786 -1800 -663 -1940 -715 -2865 -1065 -1024 -388 -1355 -516
-1351 -520 4 -4 2005 492 2606 646 1275 327 2985 773 3785 987 1529 409 1971
528 2775 745 1079 292 1709 465 1715 472 3 3 4 257 3 565 l-3 560 -155 -55z"/>
<path d="M79040 48969 c-355 -93 -721 -189 -815 -213 -1004 -258 -2342 -610
-2290 -602 28 5 3711 800 3762 812 22 6 23 11 23 90 0 74 -2 84 -17 83 -10 -1
-308 -77 -663 -170z"/>
<path d="M75878 48143 c7 -3 16 -2 19 1 4 3 -2 6 -13 5 -11 0 -14 -3 -6 -6z"/>
<path d="M78148 47412 c-846 -179 -1536 -328 -1534 -330 3 -2 2537 494 3054
599 46 9 52 13 52 35 0 17 -5 24 -17 23 -10 0 -710 -148 -1555 -327z"/>
<path d="M76568 47073 c6 -2 18 -2 25 0 6 3 1 5 -13 5 -14 0 -19 -2 -12 -5z"/>
<path d="M76518 47063 c6 -2 18 -2 25 0 6 3 1 5 -13 5 -14 0 -19 -2 -12 -5z"/>
<path d="M76468 47053 c6 -2 18 -2 25 0 6 3 1 5 -13 5 -14 0 -19 -2 -12 -5z"/>
<path d="M76428 47043 c7 -3 16 -2 19 1 4 3 -2 6 -13 5 -11 0 -14 -3 -6 -6z"/>
<path d="M76378 47033 c7 -3 16 -2 19 1 4 3 -2 6 -13 5 -11 0 -14 -3 -6 -6z"/>
<path d="M76328 47023 c7 -3 16 -2 19 1 4 3 -2 6 -13 5 -11 0 -14 -3 -6 -6z"/>
<path d="M77500 45841 c-2357 -425 -5571 -1013 -5566 -1019 8 -8 7646 1117
7764 1143 21 5 22 9 22 140 0 74 -3 135 -7 134 -5 -1 -1000 -180 -2213 -398z"/>
<path d="M71878 44813 c6 -2 18 -2 25 0 6 3 1 5 -13 5 -14 0 -19 -2 -12 -5z"/>
<path d="M79205 44344 c-264 -40 -880 -135 -1370 -209 -1969 -301 -2151 -329
-3895 -611 -1489 -240 -2879 -474 -3650 -613 -256 -47 -268 -50 -175 -45 55 2
246 11 425 19 358 17 1097 54 1685 85 906 48 3654 218 4605 285 272 19 794 55
1160 80 366 25 904 63 1195 83 l530 37 3 483 c2 455 1 482 -15 481 -10 -1
-234 -34 -498 -75z"/>
<path d="M78233 41082 c-765 -48 -1390 -88 -1389 -89 5 -5 2676 47 2784 53
l92 6 0 59 0 59 -47 -1 c-27 -1 -674 -40 -1440 -87z"/>
<path d="M78390 39830 l-975 -17 1153 -1 c1146 -2 1152 -2 1152 18 0 24 75 24
-1330 0z"/>
<path d="M76963 39803 c15 -2 37 -2 50 0 12 2 0 4 -28 4 -27 0 -38 -2 -22 -4z"/>
<path d="M72420 38483 c264 -17 3713 -180 5230 -247 1048 -47 1942 -88 1988
-91 l82 -5 0 124 0 124 -92 6 c-120 7 -3193 52 -5263 76 -1475 18 -2088 22
-1945 13z"/>
<path d="M69995 35595 c24 -9 1967 -375 2600 -489 547 -99 2487 -444 3040
-540 854 -149 4040 -686 4068 -686 16 0 17 37 17 484 l0 483 -72 6 c-40 4
-386 33 -768 66 -2539 220 -3071 264 -4858 401 -1381 106 -1657 126 -2602 190
-1134 76 -1454 95 -1425 85z"/>
<path d="M76158 32183 c7 -3 16 -2 19 1 4 3 -2 6 -13 5 -11 0 -14 -3 -6 -6z"/>
<path d="M76205 32173 c11 -3 796 -175 1743 -384 948 -208 1735 -382 1748
-385 24 -6 24 -6 24 75 0 45 -4 81 -8 81 -4 0 -795 140 -1756 310 -1511 268
-1852 327 -1751 303z"/>
<path d="M76208 30953 c7 -3 16 -2 19 1 4 3 -2 6 -13 5 -11 0 -14 -3 -6 -6z"/>
<path d="M76248 30943 c7 -3 16 -2 19 1 4 3 -2 6 -13 5 -11 0 -14 -3 -6 -6z"/>
<path d="M76298 30933 c7 -3 16 -2 19 1 4 3 -2 6 -13 5 -11 0 -14 -3 -6 -6z"/>
<path d="M76338 30923 c7 -3 16 -2 19 1 4 3 -2 6 -13 5 -11 0 -14 -3 -6 -6z"/>
<path d="M76540 30876 c96 -24 411 -100 700 -169 1856 -444 2457 -587 2468
-587 19 0 14 48 -5 54 -10 3 -171 39 -358 81 -187 42 -920 207 -1630 366 -709
160 -1303 292 -1320 295 -16 2 49 -16 145 -40z"/>
<path d="M71168 30813 c7 -3 16 -2 19 1 4 3 -2 6 -13 5 -11 0 -14 -3 -6 -6z"/>
<path d="M71220 30800 c14 -5 603 -178 1310 -385 707 -207 1398 -410 1535
-450 206 -61 1096 -319 2450 -710 2067 -597 3168 -916 3188 -921 16 -5 17 7
17 148 l0 153 -2678 688 c-1472 378 -3201 820 -3842 983 -641 162 -1351 342
-1577 399 -383 97 -467 117 -403 95z"/>
<path d="M68511 29266 c9 -8 1690 -715 2304 -969 198 -82 1447 -593 1770 -724
61 -25 232 -94 380 -155 262 -107 398 -162 840 -341 739 -299 3262 -1303 4335
-1724 530 -208 1571 -613 1576 -613 2 0 3 264 2 586 l-3 587 -235 74 c-651
206 -2102 655 -3195 988 -192 59 -575 176 -850 260 -1171 359 -2680 810 -4295
1285 -654 192 -2608 750 -2627 750 -4 0 -4 -2 -2 -4z"/>
<path d="M6302 27520 c0 -19 2 -27 5 -17 2 9 2 25 0 35 -3 9 -5 1 -5 -18z"/>
<path d="M73860 24620 c8 -5 20 -10 25 -10 6 0 3 5 -5 10 -8 5 -19 10 -25 10
-5 0 -3 -5 5 -10z"/>
<path d="M73914 24599 c10 -6 100 -49 200 -94 100 -45 206 -94 236 -108 78
-36 594 -271 860 -392 124 -56 691 -315 1260 -575 864 -394 3106 -1409 3218
-1457 l33 -14 -3 137 -3 136 -370 153 c-1605 661 -1941 799 -2245 923 -190 77
-518 211 -730 297 -212 87 -455 186 -540 220 -85 35 -549 224 -1030 420 -920
375 -916 374 -886 354z"/>
<path d="M68670 24346 c0 -2 44 -28 98 -57 53 -28 203 -109 332 -180 1161
-630 2724 -1473 4490 -2421 1994 -1071 2948 -1583 3105 -1668 494 -266 2818
-1504 2993 -1594 l32 -17 0 215 0 214 -437 222 c-517 261 -7918 3959 -8173
4083 -96 47 -508 250 -915 452 -407 202 -789 391 -850 420 -60 29 -237 116
-392 194 -156 77 -283 139 -283 137z"/>
<path d="M73734 23369 c32 -17 60 -28 63 -26 4 5 -104 57 -116 57 -3 -1 20
-15 53 -31z"/>
<path d="M73850 23317 c25 -14 914 -440 1975 -947 1062 -508 2371 -1134 2910
-1391 l980 -469 3 51 c2 28 2 52 0 54 -2 1 -525 243 -1163 538 -638 294 -1189
549 -1225 565 -36 17 -270 125 -520 240 -250 116 -484 224 -520 240 -36 17
-270 125 -520 240 -250 116 -489 226 -530 245 -41 19 -129 59 -195 90 -66 30
-145 66 -175 80 -187 88 -1038 480 -1050 483 -8 3 5 -6 30 -19z"/>
<path d="M65435 22903 c22 -23 1642 -1196 2235 -1619 1131 -807 2419 -1718
3160 -2236 2373 -1656 3240 -2257 4590 -3178 349 -238 1110 -758 1690 -1155
819 -560 2515 -1708 2597 -1758 11 -7 13 139 13 825 l0 833 -507 307 c-280
168 -796 477 -1148 685 -352 209 -836 496 -1075 638 -239 142 -682 405 -985
585 -1170 696 -2131 1260 -3560 2090 -258 150 -672 391 -920 535 -619 361
-1258 728 -2055 1183 -371 212 -898 512 -1170 667 -672 383 -1862 1050 -2525
1415 -143 78 -280 154 -305 168 -25 14 -40 21 -35 15z"/>
<path d="M64480 18075 c13 -14 26 -25 28 -25 3 0 -5 11 -18 25 -13 14 -26 25
-28 25 -3 0 5 -11 18 -25z"/>
<path d="M64520 18046 c0 -5 74 -71 1320 -1176 771 -684 770 -683 845 -751 80
-72 537 -475 2370 -2089 2794 -2460 3029 -2667 3495 -3075 245 -214 459 -401
475 -416 93 -82 494 -432 865 -754 519 -451 1148 -998 1385 -1205 61 -53 459
-400 885 -771 426 -370 912 -793 1080 -939 168 -146 397 -346 510 -444 113
-98 459 -400 769 -670 311 -270 622 -540 691 -601 70 -60 211 -183 313 -272
103 -90 189 -163 192 -163 3 0 5 150 5 334 l0 334 -797 670 c-439 368 -827
694 -863 724 -36 30 -627 527 -1315 1104 -687 576 -1475 1237 -1750 1468
-1391 1170 -1706 1433 -2640 2211 -555 462 -1111 924 -1235 1027 -365 302
-2467 2046 -3359 2787 -168 139 -891 735 -1606 1324 -715 589 -1375 1133
-1467 1209 -93 76 -168 136 -168 134z"/>
<path d="M61475 17395 c180 -205 516 -585 659 -745 17 -19 173 -195 346 -390
173 -195 317 -357 320 -360 3 -3 84 -93 180 -200 96 -107 346 -384 555 -615
209 -231 441 -487 515 -570 674 -746 1830 -2013 2329 -2550 26 -27 229 -248
451 -490 426 -464 739 -803 824 -895 29 -30 285 -307 571 -615 286 -308 689
-740 895 -960 206 -220 548 -584 759 -810 211 -225 416 -444 455 -485 202
-215 327 -349 511 -545 87 -93 186 -199 220 -235 33 -36 202 -216 375 -400
173 -184 404 -429 514 -545 110 -115 243 -255 295 -310 184 -194 296 -311 381
-400 47 -49 351 -369 675 -710 632 -665 1361 -1430 1509 -1585 103 -107 272
-284 420 -440 55 -58 145 -152 201 -210 55 -58 296 -310 535 -560 239 -250
486 -509 550 -575 64 -66 231 -239 370 -385 321 -336 479 -500 649 -672 l134
-138 1024 0 1023 0 0 203 0 204 -102 98 c-57 55 -245 237 -418 405 -321 312
-948 916 -1415 1364 -143 138 -323 311 -400 386 -78 74 -235 225 -350 335
-224 213 -383 365 -585 560 -69 66 -215 206 -325 310 -368 351 -669 638 -770
735 -133 128 -487 465 -885 845 -179 170 -368 350 -420 400 -376 360 -339 325
-960 916 -240 228 -514 488 -610 579 -96 90 -204 192 -240 226 -36 33 -328
308 -650 609 -322 302 -616 579 -655 615 -38 37 -149 140 -245 230 -96 90
-247 232 -335 315 -88 84 -279 264 -425 400 -146 137 -292 274 -325 305 -33
31 -94 88 -135 127 -41 38 -178 166 -305 284 -126 118 -358 333 -515 479 -157
145 -319 295 -360 334 -42 39 -130 121 -195 181 -127 117 -353 326 -445 411
-65 60 -330 304 -346 319 -46 42 -288 265 -679 626 -780 720 -1412 1297 -2315
2115 -212 191 -403 365 -425 385 -43 40 -457 415 -595 540 -47 42 -197 177
-335 299 -137 123 -286 256 -330 295 -280 252 -1297 1152 -1350 1194 -10 9 80
-96 200 -234z"/>
<path d="M69580 17176 c0 -2 8 -10 18 -17 15 -13 16 -12 3 4 -13 16 -21 21
-21 13z"/>
<path d="M69635 17133 c11 -11 355 -279 765 -595 410 -316 1121 -865 1580
-1219 459 -355 1510 -1162 2335 -1794 825 -632 1988 -1523 2585 -1980 1051
-805 2176 -1665 2525 -1930 94 -70 198 -151 233 -178 l62 -49 0 279 0 279
-367 264 c-394 283 -3920 2805 -5698 4075 -809 578 -3143 2235 -3990 2833 -27
19 -41 26 -30 15z"/>
<path d="M69000 16126 c0 -2 8 -10 18 -17 15 -13 16 -12 3 4 -13 16 -21 21
-21 13z"/>
<path d="M69050 16086 c0 -2 8 -10 18 -17 15 -13 16 -12 3 4 -13 16 -21 21
-21 13z"/>
<path d="M69105 16040 c10 -11 20 -20 23 -20 3 0 -3 9 -13 20 -10 11 -20 20
-23 20 -3 0 3 -9 13 -20z"/>
<path d="M69155 16003 c11 -12 445 -362 965 -778 1044 -835 1781 -1425 4375
-3504 2117 -1696 3144 -2519 4325 -3465 l895 -716 3 116 c1 65 -1 121 -5 125
-4 4 -1326 1034 -2938 2290 -2853 2222 -3938 3068 -5325 4149 -371 289 -1024
798 -1450 1130 -426 332 -795 619 -820 639 -25 19 -36 25 -25 14z"/>
<path d="M65161 9845 c1328 -1594 2116 -2535 3014 -3600 56 -66 555 -660 1110
-1320 1664 -1980 2854 -3391 3215 -3815 59 -69 254 -298 434 -510 180 -212
369 -433 419 -492 l92 -108 324 0 c308 0 323 1 309 18 -80 93 -1550 1749
-1742 1962 -17 19 -225 251 -461 515 -393 439 -953 1063 -1130 1260 -39 44
-179 199 -310 345 -131 146 -254 283 -274 305 -20 22 -160 177 -310 345 -151
168 -290 323 -310 345 -20 22 -457 508 -971 1080 -514 572 -1090 1213 -1280
1425 -313 348 -1554 1721 -1654 1830 -41 44 -1071 1182 -1336 1475 -74 83
-155 170 -178 195 -24 25 443 -540 1039 -1255z"/>
<path d="M63250 10286 c0 -2 8 -10 18 -17 15 -13 16 -12 3 4 -13 16 -21 21
-21 13z"/>
<path d="M63290 10236 c0 -2 8 -10 18 -17 15 -13 16 -12 3 4 -13 16 -21 21
-21 13z"/>
<path d="M63345 10170 c10 -11 20 -20 23 -20 3 0 -3 9 -13 20 -10 11 -20 20
-23 20 -3 0 3 -9 13 -20z"/>
<path d="M63512 9965 c226 -281 5912 -7350 6208 -7719 443 -549 963 -1197
1395 -1735 l410 -510 119 -1 119 0 -20 22 c-11 13 -375 453 -808 978 -434 525
-938 1135 -1120 1355 -182 220 -504 609 -715 865 -211 256 -447 542 -525 635
-78 94 -323 391 -546 660 -223 270 -1073 1298 -1889 2285 -816 987 -1763 2133
-2103 2545 -341 413 -631 761 -645 775 -14 14 40 -56 120 -155z"/>
<path d="M57645 6180 c9 -16 18 -30 21 -30 2 0 -2 14 -11 30 -9 17 -18 30 -21
30 -2 0 2 -13 11 -30z"/>
</g>
</svg>
